<svg width="32" height="32" viewBox="0 0 32 32" fill="none" xmlns="http://www.w3.org/2000/svg">
<path d="M16 32C24.8366 32 32 24.8366 32 16C32 7.16344 24.8366 0 16 0C7.16344 0 0 7.16344 0 16C0 24.8366 7.16344 32 16 32Z" fill="#1E1E1E"/>
<path d="M22.6342 9.89023H12.8802C12.6486 9.89023 12.4647 10.0741 12.4647 10.3057V11.8179C12.4647 11.9268 12.5533 12.0086 12.6554 12.0086C12.7576 12.0086 12.8462 11.92 12.8462 11.8179V10.2785H22.7023V16.1567H15.1893C15.0803 16.1567 14.9986 16.2453 14.9986 16.3475C14.9986 16.4496 15.0871 16.5382 15.1893 16.5382H22.7023V17.4781H15.0599C14.9509 17.4781 14.8692 17.5667 14.8692 17.6689C14.8692 17.771 14.9577 17.8596 15.0599 17.8596H16.2587V19.2559H15.3732C15.2642 19.2559 15.1825 19.3445 15.1825 19.4466C15.1825 19.5488 15.271 19.6374 15.3732 19.6374H20.1548C20.2638 19.6374 20.3455 19.5488 20.3455 19.4466C20.3455 19.3445 20.257 19.2559 20.1548 19.2559H19.2898V17.8596H22.6887C22.9066 17.8596 23.0905 17.6825 23.0905 17.4577V10.3398C23.0905 10.0878 22.8862 9.88342 22.6342 9.88342V9.89023ZM18.9083 19.2559H16.6469V17.8596H18.9083V19.2559Z" fill="white"/>
<path d="M13.9019 12.9486H9.29742C9.08627 12.9486 8.90918 13.1189 8.90918 13.3368V21.7353C8.90918 21.9464 9.07946 22.1235 9.29742 22.1235H13.9019C14.1131 22.1235 14.2902 21.9533 14.2902 21.7353V13.3368C14.2902 13.1257 14.1199 12.9486 13.9019 12.9486ZM13.9019 21.7285H9.29062V20.5842H13.9019V21.7285ZM13.9019 20.2027H9.29062V13.33H13.9019V20.2027Z" fill="white"/>
<path d="M11.2727 21.3538H11.9266C12.0356 21.3538 12.1173 21.2653 12.1173 21.1631C12.1173 21.0609 12.0288 20.9724 11.9266 20.9724H11.2727C11.1637 20.9724 11.082 21.0609 11.082 21.1631C11.082 21.2653 11.1706 21.3538 11.2727 21.3538Z" fill="white"/>
<path d="M22.6342 9.89023H12.8802C12.6486 9.89023 12.4647 10.0741 12.4647 10.3057V11.8179C12.4647 11.9268 12.5533 12.0086 12.6554 12.0086C12.7576 12.0086 12.8462 11.92 12.8462 11.8179V10.2785H22.7023V16.1567H15.1893C15.0803 16.1567 14.9986 16.2453 14.9986 16.3475C14.9986 16.4496 15.0871 16.5382 15.1893 16.5382H22.7023V17.4781H15.0599C14.9509 17.4781 14.8692 17.5667 14.8692 17.6689C14.8692 17.771 14.9577 17.8596 15.0599 17.8596H16.2587V19.2559H15.3732C15.2642 19.2559 15.1825 19.3445 15.1825 19.4466C15.1825 19.5488 15.271 19.6374 15.3732 19.6374H20.1548C20.2638 19.6374 20.3455 19.5488 20.3455 19.4466C20.3455 19.3445 20.257 19.2559 20.1548 19.2559H19.2898V17.8596H22.6887C22.9066 17.8596 23.0905 17.6825 23.0905 17.4577V10.3398C23.0905 10.0878 22.8862 9.88342 22.6342 9.88342V9.89023ZM18.9083 19.2559H16.6469V17.8596H18.9083V19.2559Z" stroke="white" stroke-width="0.335321"/>
<path d="M13.9019 12.9486H9.29742C9.08627 12.9486 8.90918 13.1189 8.90918 13.3368V21.7353C8.90918 21.9464 9.07946 22.1235 9.29742 22.1235H13.9019C14.1131 22.1235 14.2902 21.9533 14.2902 21.7353V13.3368C14.2902 13.1257 14.1199 12.9486 13.9019 12.9486ZM13.9019 21.7285H9.29062V20.5842H13.9019V21.7285ZM13.9019 20.2027H9.29062V13.33H13.9019V20.2027Z" stroke="white" stroke-width="0.335321"/>
<path d="M11.2727 21.3538H11.9266C12.0356 21.3538 12.1173 21.2653 12.1173 21.1631C12.1173 21.0609 12.0288 20.9724 11.9266 20.9724H11.2727C11.1637 20.9724 11.082 21.0609 11.082 21.1631C11.082 21.2653 11.1706 21.3538 11.2727 21.3538Z" stroke="white" stroke-width="0.335321"/>
</svg>
