<svg width="32" height="32" viewBox="0 0 32 32" fill="none" xmlns="http://www.w3.org/2000/svg">
<path d="M16 32C24.8366 32 32 24.8366 32 16C32 7.16344 24.8366 0 16 0C7.16344 0 0 7.16344 0 16C0 24.8366 7.16344 32 16 32Z" fill="#FE2500"/>
<path d="M23.1316 19.4533C23.1316 19.4533 23.1316 19.4465 23.1316 19.4397V9.08635C23.1316 9.08635 23.1316 9.03867 23.1179 9.01142C23.1111 8.99099 23.0907 8.96374 23.0771 8.95012C23.0771 8.95012 23.0703 8.95012 23.0634 8.94331C23.0498 8.92969 23.0294 8.91606 23.0158 8.90925C22.9953 8.90244 22.9749 8.89563 22.9545 8.89563C22.9545 8.89563 22.9545 8.89563 22.9476 8.89563H12.5126C12.5126 8.89563 12.4649 8.89563 12.4376 8.90925C12.4172 8.91606 12.39 8.9365 12.3763 8.95012L8.92296 12.4239C8.92296 12.4239 8.92296 12.4308 8.91615 12.4376C8.90253 12.4512 8.8889 12.4716 8.88209 12.4921C8.87528 12.5125 8.86847 12.5329 8.86847 12.5534C8.86847 12.5534 8.86847 12.5602 8.86847 12.567V22.9203C8.86847 22.9203 8.86847 22.968 8.88209 22.9952C8.89571 23.0225 8.90934 23.0429 8.92296 23.0566C8.92296 23.0566 8.92977 23.0565 8.93658 23.0634C8.95021 23.077 8.96383 23.0906 8.98426 23.0974C9.0047 23.1042 9.03194 23.111 9.05919 23.111H19.4943C19.4943 23.111 19.5419 23.111 19.5692 23.0974C19.5896 23.0906 19.6169 23.0702 19.6305 23.0566L23.0839 19.5827C23.0839 19.5827 23.0839 19.5759 23.0907 19.5691C23.1043 19.5555 23.1179 19.5351 23.1247 19.5146C23.1316 19.4942 23.1384 19.4737 23.1384 19.4533H23.1316ZM19.685 19.6304H22.4777L19.685 22.4435V19.6304ZM12.315 19.358L9.24991 22.4435V12.7509H12.315V19.358ZM12.315 12.3626H9.52236L12.315 9.54953V12.3626ZM12.7033 12.7509H19.2967V19.2422H12.7033V12.7509ZM19.685 12.6351L22.7501 9.54953V19.2422H19.685V12.6351ZM22.4777 9.27707L19.4125 12.3626H12.7033V9.27707H22.4777ZM9.52236 22.716L12.5875 19.6304H19.2967V22.716H9.52236Z" fill="white" stroke="white" stroke-width="0.335149"/>
</svg>
