<svg width="32" height="32" viewBox="0 0 32 32" fill="none" xmlns="http://www.w3.org/2000/svg">
<path d="M16 32C24.8366 32 32 24.8366 32 16C32 7.16344 24.8366 0 16 0C7.16344 0 0 7.16344 0 16C0 24.8366 7.16344 32 16 32Z" fill="#010643"/>
<path d="M22.8523 9.00464H11.8723C11.7634 9.00464 11.6816 9.09319 11.6816 9.19536V11.7701H9.14778C9.0388 11.7701 8.95706 11.8586 8.95706 11.9608V22.7977C8.95706 22.9067 9.04561 22.9885 9.14778 22.9885H20.1278C20.2368 22.9885 20.3185 22.8999 20.3185 22.7977V20.223H22.8523C22.9613 20.223 23.0431 20.1345 23.0431 20.0323V9.19536C23.0431 9.08638 22.9545 9.00464 22.8523 9.00464ZM19.9302 22.6138H9.3385V12.1583H19.9302V22.6138ZM22.6548 19.8484H20.3117V11.9676C20.3117 11.8586 20.2231 11.7769 20.121 11.7769H12.0631V9.39289H22.6548V19.8484Z" fill="white"/>
<path d="M17.7233 14.8897L13.0643 19.5487L11.6407 17.9753C11.5522 17.914 11.4296 17.9344 11.3751 18.023C11.3138 18.1115 11.3342 18.2341 11.4227 18.2886L12.9757 19.9574C12.9757 19.9574 13.0507 19.9915 13.0847 19.9915C13.1324 19.9915 13.1869 19.971 13.221 19.937L17.9889 15.169C18.0639 15.0941 18.0639 14.9715 17.9889 14.8965C17.914 14.8216 17.7914 14.8216 17.7165 14.8965L17.7233 14.8897Z" fill="white"/>
<path d="M22.8523 9.00464H11.8723C11.7634 9.00464 11.6816 9.09319 11.6816 9.19536V11.7701H9.14778C9.0388 11.7701 8.95706 11.8586 8.95706 11.9608V22.7977C8.95706 22.9067 9.04561 22.9885 9.14778 22.9885H20.1278C20.2368 22.9885 20.3185 22.8999 20.3185 22.7977V20.223H22.8523C22.9613 20.223 23.0431 20.1345 23.0431 20.0323V9.19536C23.0431 9.08638 22.9545 9.00464 22.8523 9.00464ZM19.9302 22.6138H9.3385V12.1583H19.9302V22.6138ZM22.6548 19.8484H20.3117V11.9676C20.3117 11.8586 20.2231 11.7769 20.121 11.7769H12.0631V9.39289H22.6548V19.8484Z" stroke="white" stroke-width="0.335321"/>
<path d="M17.7233 14.8897L13.0643 19.5487L11.6407 17.9753C11.5522 17.914 11.4296 17.9344 11.3751 18.023C11.3138 18.1115 11.3342 18.2341 11.4227 18.2886L12.9757 19.9574C12.9757 19.9574 13.0507 19.9915 13.0847 19.9915C13.1324 19.9915 13.1869 19.971 13.221 19.937L17.9889 15.169C18.0639 15.0941 18.0639 14.9715 17.9889 14.8965C17.914 14.8216 17.7914 14.8216 17.7165 14.8965L17.7233 14.8897Z" stroke="white" stroke-width="0.335321"/>
</svg>
