<svg width="32" height="32" viewBox="0 0 32 32" fill="none" xmlns="http://www.w3.org/2000/svg">
<path d="M16 32C24.8366 32 32 24.8366 32 16C32 7.16344 24.8366 0 16 0C7.16345 0 0 7.16344 0 16C0 24.8366 7.16345 32 16 32Z" fill="#0047A6"/>
<path d="M22.2052 20.5092C21.9804 20.2844 21.6875 20.1482 21.3674 20.1277V17.1716C21.3674 16.0613 20.4614 15.1554 19.3512 15.1554H16.252V11.811C16.8855 11.7156 17.3759 11.1707 17.3759 10.51C17.3759 10.1558 17.2397 9.82887 16.9876 9.57685C16.7356 9.32483 16.4087 9.1886 16.0545 9.1886C15.3256 9.1886 14.7331 9.78119 14.7331 10.51C14.7331 11.1707 15.2235 11.7224 15.8569 11.811V15.1554H12.2128C11.2797 15.1554 10.5168 15.9183 10.5168 16.8514V20.08C9.88333 20.1754 9.39291 20.7203 9.39291 21.381C9.39291 22.1098 9.9855 22.7024 10.7143 22.7024C11.4431 22.7024 12.0357 22.1098 12.0357 21.381C12.0357 21.0268 11.8995 20.6999 11.6475 20.4479C11.4431 20.2435 11.1843 20.1209 10.905 20.08V16.8514C10.905 16.1294 11.4908 15.5436 12.2128 15.5436H15.8569V20.1958C15.1894 20.2639 14.6649 20.8225 14.6649 21.5104C14.6649 22.2393 15.2575 22.8318 15.9864 22.8318C16.7152 22.8318 17.3078 22.2393 17.3078 21.5104C17.3078 21.1562 17.1715 20.8293 16.9195 20.5773C16.7288 20.3934 16.4972 20.2639 16.2452 20.2163V15.5436H19.3444C20.2435 15.5436 20.9791 16.2725 20.9791 17.1784V20.1618C20.3933 20.2912 19.9506 20.8225 19.9506 21.4491C19.9506 22.178 20.5432 22.7705 21.272 22.7705C22.0008 22.7705 22.5934 22.178 22.5934 21.4491C22.5934 21.0949 22.4572 20.768 22.2052 20.516V20.5092ZM15.1281 10.5032C15.1281 9.98553 15.5436 9.57004 16.0613 9.57004C16.3133 9.57004 16.5449 9.6654 16.722 9.84249C16.8991 10.0196 16.9944 10.2512 16.9944 10.5032C16.9944 11.0209 16.5789 11.4364 16.0613 11.4364C15.5436 11.4364 15.1281 11.0209 15.1281 10.5032ZM11.3818 20.7135C11.5589 20.8906 11.6543 21.1222 11.6543 21.3742C11.6543 21.8919 11.2388 22.3074 10.7211 22.3074C10.2035 22.3074 9.78797 21.8919 9.78797 21.3742C9.78797 20.8565 10.2035 20.441 10.7211 20.441C10.9732 20.441 11.2047 20.5364 11.3818 20.7135ZM16.9331 21.5036C16.9331 22.0213 16.5176 22.4368 16 22.4368C15.4823 22.4368 15.0668 22.0213 15.0668 21.5036C15.0668 20.986 15.4823 20.5705 16 20.5705C16.252 20.5705 16.4836 20.6658 16.6607 20.8429C16.8378 21.02 16.9331 21.2516 16.9331 21.5036ZM21.272 22.3755C20.7543 22.3755 20.3388 21.96 20.3388 21.4423C20.3388 20.9247 20.7543 20.5092 21.272 20.5092C21.524 20.5092 21.7556 20.6045 21.9327 20.7816C22.1098 20.9587 22.2052 21.1903 22.2052 21.4423C22.2052 21.96 21.7897 22.3755 21.272 22.3755Z" fill="white" stroke="white" stroke-width="0.335149"/>
</svg>
