<svg width="153" height="24" viewBox="0 0 153 24" fill="none" xmlns="http://www.w3.org/2000/svg">
<path d="M4.516 16.063L0.892 7.66299H2.992L6.16 15.103H4.924L8.14 7.66299H10.072L6.436 16.063H4.516ZM13.3649 16.159C12.6289 16.159 11.9809 16.015 11.4209 15.727C10.8689 15.439 10.4409 15.047 10.1369 14.551C9.83288 14.047 9.68088 13.475 9.68088 12.835C9.68088 12.187 9.82888 11.615 10.1249 11.119C10.4289 10.615 10.8409 10.223 11.3609 9.94299C11.8809 9.65499 12.4689 9.51099 13.1249 9.51099C13.7569 9.51099 14.3249 9.64699 14.8289 9.91899C15.3409 10.183 15.7449 10.567 16.0409 11.071C16.3369 11.567 16.4849 12.163 16.4849 12.859C16.4849 12.931 16.4809 13.015 16.4729 13.111C16.4649 13.199 16.4569 13.283 16.4489 13.363H11.2049V12.271H15.4649L14.7449 12.595C14.7449 12.259 14.6769 11.967 14.5409 11.719C14.4049 11.471 14.2169 11.279 13.9769 11.143C13.7369 10.999 13.4569 10.927 13.1369 10.927C12.8169 10.927 12.5329 10.999 12.2849 11.143C12.0449 11.279 11.8569 11.475 11.7209 11.731C11.5849 11.979 11.5169 12.275 11.5169 12.619V12.907C11.5169 13.259 11.5929 13.571 11.7449 13.843C11.9049 14.107 12.1249 14.311 12.4049 14.455C12.6929 14.591 13.0289 14.659 13.4129 14.659C13.7569 14.659 14.0569 14.607 14.3129 14.503C14.5769 14.399 14.8169 14.243 15.0329 14.035L16.0289 15.115C15.7329 15.451 15.3609 15.711 14.9129 15.895C14.4649 16.071 13.9489 16.159 13.3649 16.159ZM17.7312 16.063V9.60699H19.5192V11.431L19.2672 10.903C19.4592 10.447 19.7672 10.103 20.1912 9.87099C20.6152 9.63099 21.1312 9.51099 21.7392 9.51099V11.239C21.6592 11.231 21.5872 11.227 21.5232 11.227C21.4592 11.219 21.3912 11.215 21.3192 11.215C20.8072 11.215 20.3912 11.363 20.0712 11.659C19.7592 11.947 19.6032 12.399 19.6032 13.015V16.063H17.7312ZM28.9376 16.159C28.1776 16.159 27.5856 15.967 27.1616 15.583C26.7376 15.191 26.5256 14.611 26.5256 13.843V8.17899H28.3976V13.819C28.3976 14.091 28.4696 14.303 28.6136 14.455C28.7576 14.599 28.9536 14.671 29.2016 14.671C29.4976 14.671 29.7496 14.591 29.9576 14.431L30.4616 15.751C30.2696 15.887 30.0376 15.991 29.7656 16.063C29.5016 16.127 29.2256 16.159 28.9376 16.159ZM25.5296 11.191V9.75099H30.0056V11.191H25.5296ZM34.3852 16.159C33.6972 16.159 33.0852 16.015 32.5492 15.727C32.0212 15.439 31.6012 15.047 31.2892 14.551C30.9852 14.047 30.8332 13.475 30.8332 12.835C30.8332 12.187 30.9852 11.615 31.2892 11.119C31.6012 10.615 32.0212 10.223 32.5492 9.94299C33.0852 9.65499 33.6972 9.51099 34.3852 9.51099C35.0652 9.51099 35.6732 9.65499 36.2092 9.94299C36.7452 10.223 37.1652 10.611 37.4692 11.107C37.7732 11.603 37.9252 12.179 37.9252 12.835C37.9252 13.475 37.7732 14.047 37.4692 14.551C37.1652 15.047 36.7452 15.439 36.2092 15.727C35.6732 16.015 35.0652 16.159 34.3852 16.159ZM34.3852 14.623C34.6972 14.623 34.9772 14.551 35.2252 14.407C35.4732 14.263 35.6692 14.059 35.8132 13.795C35.9572 13.523 36.0292 13.203 36.0292 12.835C36.0292 12.459 35.9572 12.139 35.8132 11.875C35.6692 11.611 35.4732 11.407 35.2252 11.263C34.9772 11.119 34.6972 11.047 34.3852 11.047C34.0732 11.047 33.7932 11.119 33.5452 11.263C33.2972 11.407 33.0972 11.611 32.9452 11.875C32.8012 12.139 32.7292 12.459 32.7292 12.835C32.7292 13.203 32.8012 13.523 32.9452 13.795C33.0972 14.059 33.2972 14.263 33.5452 14.407C33.7932 14.551 34.0732 14.623 34.3852 14.623ZM41.9485 16.159C41.3405 16.159 40.7925 16.023 40.3045 15.751C39.8165 15.471 39.4285 15.083 39.1405 14.587C38.8605 14.091 38.7205 13.507 38.7205 12.835C38.7205 12.155 38.8605 11.567 39.1405 11.071C39.4285 10.575 39.8165 10.191 40.3045 9.91899C40.7925 9.64699 41.3405 9.51099 41.9485 9.51099C42.4925 9.51099 42.9685 9.63099 43.3765 9.87099C43.7845 10.111 44.1005 10.475 44.3245 10.963C44.5485 11.451 44.6605 12.075 44.6605 12.835C44.6605 13.587 44.5525 14.211 44.3365 14.707C44.1205 15.195 43.8085 15.559 43.4005 15.799C43.0005 16.039 42.5165 16.159 41.9485 16.159ZM42.2725 14.623C42.5765 14.623 42.8525 14.551 43.1005 14.407C43.3485 14.263 43.5445 14.059 43.6885 13.795C43.8405 13.523 43.9165 13.203 43.9165 12.835C43.9165 12.459 43.8405 12.139 43.6885 11.875C43.5445 11.611 43.3485 11.407 43.1005 11.263C42.8525 11.119 42.5765 11.047 42.2725 11.047C41.9605 11.047 41.6805 11.119 41.4325 11.263C41.1845 11.407 40.9845 11.611 40.8325 11.875C40.6885 12.139 40.6165 12.459 40.6165 12.835C40.6165 13.203 40.6885 13.523 40.8325 13.795C40.9845 14.059 41.1845 14.263 41.4325 14.407C41.6805 14.551 41.9605 14.623 42.2725 14.623ZM43.9645 16.063V14.743L44.0005 12.823L43.8805 10.915V7.15899H45.7525V16.063H43.9645ZM50.5571 16.159C49.8691 16.159 49.2571 16.015 48.7211 15.727C48.1931 15.439 47.7731 15.047 47.4611 14.551C47.1571 14.047 47.0051 13.475 47.0051 12.835C47.0051 12.187 47.1571 11.615 47.4611 11.119C47.7731 10.615 48.1931 10.223 48.7211 9.94299C49.2571 9.65499 49.8691 9.51099 50.5571 9.51099C51.2371 9.51099 51.8451 9.65499 52.3811 9.94299C52.9171 10.223 53.3371 10.611 53.6411 11.107C53.9451 11.603 54.0971 12.179 54.0971 12.835C54.0971 13.475 53.9451 14.047 53.6411 14.551C53.3371 15.047 52.9171 15.439 52.3811 15.727C51.8451 16.015 51.2371 16.159 50.5571 16.159ZM50.5571 14.623C50.8691 14.623 51.1491 14.551 51.3971 14.407C51.6451 14.263 51.8411 14.059 51.9851 13.795C52.1291 13.523 52.2011 13.203 52.2011 12.835C52.2011 12.459 52.1291 12.139 51.9851 11.875C51.8411 11.611 51.6451 11.407 51.3971 11.263C51.1491 11.119 50.8691 11.047 50.5571 11.047C50.2451 11.047 49.9651 11.119 49.7171 11.263C49.4691 11.407 49.2691 11.611 49.1171 11.875C48.9731 12.139 48.9011 12.459 48.9011 12.835C48.9011 13.203 48.9731 13.523 49.1171 13.795C49.2691 14.059 49.4691 14.263 49.7171 14.407C49.9651 14.551 50.2451 14.623 50.5571 14.623ZM57.5204 16.159C56.9684 16.159 56.4364 16.095 55.9244 15.967C55.4204 15.831 55.0204 15.663 54.7244 15.463L55.3484 14.119C55.6444 14.303 55.9924 14.455 56.3924 14.575C56.8004 14.687 57.2004 14.743 57.5924 14.743C58.0244 14.743 58.3284 14.691 58.5044 14.587C58.6884 14.483 58.7804 14.339 58.7804 14.155C58.7804 14.003 58.7084 13.891 58.5644 13.819C58.4284 13.739 58.2444 13.679 58.0124 13.639C57.7804 13.599 57.5244 13.559 57.2444 13.519C56.9724 13.479 56.6964 13.427 56.4164 13.363C56.1364 13.291 55.8804 13.187 55.6484 13.051C55.4164 12.915 55.2284 12.731 55.0844 12.499C54.9484 12.267 54.8804 11.967 54.8804 11.599C54.8804 11.191 54.9964 10.831 55.2284 10.519C55.4684 10.207 55.8124 9.96299 56.2604 9.78699C56.7084 9.60299 57.2444 9.51099 57.8684 9.51099C58.3084 9.51099 58.7564 9.55899 59.2124 9.65499C59.6684 9.75099 60.0484 9.89099 60.3524 10.075L59.7284 11.407C59.4164 11.223 59.1004 11.099 58.7804 11.035C58.4684 10.963 58.1644 10.927 57.8684 10.927C57.4524 10.927 57.1484 10.983 56.9564 11.095C56.7644 11.207 56.6684 11.351 56.6684 11.527C56.6684 11.687 56.7364 11.807 56.8724 11.887C57.0164 11.967 57.2044 12.031 57.4364 12.079C57.6684 12.127 57.9204 12.171 58.1924 12.211C58.4724 12.243 58.7524 12.295 59.0324 12.367C59.3124 12.439 59.5644 12.543 59.7884 12.679C60.0204 12.807 60.2084 12.987 60.3524 13.219C60.4964 13.443 60.5684 13.739 60.5684 14.107C60.5684 14.507 60.4484 14.863 60.2084 15.175C59.9684 15.479 59.6204 15.719 59.1644 15.895C58.7164 16.071 58.1684 16.159 57.5204 16.159ZM65.1218 16.063V7.15899H66.9938V16.063H65.1218ZM71.8032 16.159C71.1152 16.159 70.5032 16.015 69.9672 15.727C69.4392 15.439 69.0192 15.047 68.7072 14.551C68.4032 14.047 68.2512 13.475 68.2512 12.835C68.2512 12.187 68.4032 11.615 68.7072 11.119C69.0192 10.615 69.4392 10.223 69.9672 9.94299C70.5032 9.65499 71.1152 9.51099 71.8032 9.51099C72.4832 9.51099 73.0912 9.65499 73.6272 9.94299C74.1632 10.223 74.5832 10.611 74.8872 11.107C75.1912 11.603 75.3432 12.179 75.3432 12.835C75.3432 13.475 75.1912 14.047 74.8872 14.551C74.5832 15.047 74.1632 15.439 73.6272 15.727C73.0912 16.015 72.4832 16.159 71.8032 16.159ZM71.8032 14.623C72.1152 14.623 72.3952 14.551 72.6432 14.407C72.8912 14.263 73.0872 14.059 73.2312 13.795C73.3752 13.523 73.4472 13.203 73.4472 12.835C73.4472 12.459 73.3752 12.139 73.2312 11.875C73.0872 11.611 72.8912 11.407 72.6432 11.263C72.3952 11.119 72.1152 11.047 71.8032 11.047C71.4912 11.047 71.2112 11.119 70.9632 11.263C70.7152 11.407 70.5152 11.611 70.3632 11.875C70.2192 12.139 70.1472 12.459 70.1472 12.835C70.1472 13.203 70.2192 13.523 70.3632 13.795C70.5152 14.059 70.7152 14.263 70.9632 14.407C71.2112 14.551 71.4912 14.623 71.8032 14.623ZM78.7665 16.159C78.2145 16.159 77.6825 16.095 77.1705 15.967C76.6665 15.831 76.2665 15.663 75.9705 15.463L76.5945 14.119C76.8905 14.303 77.2385 14.455 77.6385 14.575C78.0465 14.687 78.4465 14.743 78.8385 14.743C79.2705 14.743 79.5745 14.691 79.7505 14.587C79.9345 14.483 80.0265 14.339 80.0265 14.155C80.0265 14.003 79.9545 13.891 79.8105 13.819C79.6745 13.739 79.4905 13.679 79.2585 13.639C79.0265 13.599 78.7705 13.559 78.4905 13.519C78.2185 13.479 77.9425 13.427 77.6625 13.363C77.3825 13.291 77.1265 13.187 76.8945 13.051C76.6625 12.915 76.4745 12.731 76.3305 12.499C76.1945 12.267 76.1265 11.967 76.1265 11.599C76.1265 11.191 76.2425 10.831 76.4745 10.519C76.7145 10.207 77.0585 9.96299 77.5065 9.78699C77.9545 9.60299 78.4905 9.51099 79.1145 9.51099C79.5545 9.51099 80.0025 9.55899 80.4585 9.65499C80.9145 9.75099 81.2945 9.89099 81.5985 10.075L80.9745 11.407C80.6625 11.223 80.3465 11.099 80.0265 11.035C79.7145 10.963 79.4105 10.927 79.1145 10.927C78.6985 10.927 78.3945 10.983 78.2025 11.095C78.0105 11.207 77.9145 11.351 77.9145 11.527C77.9145 11.687 77.9825 11.807 78.1185 11.887C78.2625 11.967 78.4505 12.031 78.6825 12.079C78.9145 12.127 79.1665 12.171 79.4385 12.211C79.7185 12.243 79.9985 12.295 80.2785 12.367C80.5585 12.439 80.8105 12.543 81.0345 12.679C81.2665 12.807 81.4545 12.987 81.5985 13.219C81.7425 13.443 81.8145 13.739 81.8145 14.107C81.8145 14.507 81.6945 14.863 81.4545 15.175C81.2145 15.479 80.8665 15.719 80.4105 15.895C79.9625 16.071 79.4145 16.159 78.7665 16.159ZM89.4879 16.159C88.7919 16.159 88.1719 16.019 87.6279 15.739C87.0839 15.451 86.6559 15.055 86.3439 14.551C86.0399 14.047 85.8879 13.475 85.8879 12.835C85.8879 12.187 86.0399 11.615 86.3439 11.119C86.6559 10.615 87.0839 10.223 87.6279 9.94299C88.1719 9.65499 88.7919 9.51099 89.4879 9.51099C90.1679 9.51099 90.7599 9.65499 91.2639 9.94299C91.7679 10.223 92.1399 10.627 92.3799 11.155L90.9279 11.935C90.7599 11.631 90.5479 11.407 90.2919 11.263C90.0439 11.119 89.7719 11.047 89.4759 11.047C89.1559 11.047 88.8679 11.119 88.6119 11.263C88.3559 11.407 88.1519 11.611 87.9999 11.875C87.8559 12.139 87.7839 12.459 87.7839 12.835C87.7839 13.211 87.8559 13.531 87.9999 13.795C88.1519 14.059 88.3559 14.263 88.6119 14.407C88.8679 14.551 89.1559 14.623 89.4759 14.623C89.7719 14.623 90.0439 14.555 90.2919 14.419C90.5479 14.275 90.7599 14.047 90.9279 13.735L92.3799 14.527C92.1399 15.047 91.7679 15.451 91.2639 15.739C90.7599 16.019 90.1679 16.159 89.4879 16.159ZM97.4178 16.063V14.803L97.2978 14.527V12.271C97.2978 11.871 97.1738 11.559 96.9258 11.335C96.6858 11.111 96.3138 10.999 95.8098 10.999C95.4658 10.999 95.1258 11.055 94.7898 11.167C94.4618 11.271 94.1818 11.415 93.9498 11.599L93.2778 10.291C93.6298 10.043 94.0538 9.85099 94.5498 9.71499C95.0458 9.57899 95.5498 9.51099 96.0618 9.51099C97.0458 9.51099 97.8098 9.74299 98.3538 10.207C98.8978 10.671 99.1698 11.395 99.1698 12.379V16.063H97.4178ZM95.4498 16.159C94.9458 16.159 94.5138 16.075 94.1538 15.907C93.7938 15.731 93.5178 15.495 93.3258 15.199C93.1338 14.903 93.0378 14.571 93.0378 14.203C93.0378 13.819 93.1298 13.483 93.3138 13.195C93.5058 12.907 93.8058 12.683 94.2138 12.523C94.6218 12.355 95.1538 12.271 95.8098 12.271H97.5258V13.363H96.0138C95.5738 13.363 95.2698 13.435 95.1018 13.579C94.9418 13.723 94.8618 13.903 94.8618 14.119C94.8618 14.359 94.9538 14.551 95.1378 14.695C95.3298 14.831 95.5898 14.899 95.9178 14.899C96.2298 14.899 96.5098 14.827 96.7578 14.683C97.0058 14.531 97.1858 14.311 97.2978 14.023L97.5858 14.887C97.4498 15.303 97.2018 15.619 96.8418 15.835C96.4818 16.051 96.0178 16.159 95.4498 16.159ZM103.036 16.159C102.484 16.159 101.952 16.095 101.44 15.967C100.936 15.831 100.536 15.663 100.24 15.463L100.864 14.119C101.16 14.303 101.508 14.455 101.908 14.575C102.316 14.687 102.716 14.743 103.108 14.743C103.54 14.743 103.844 14.691 104.02 14.587C104.204 14.483 104.296 14.339 104.296 14.155C104.296 14.003 104.224 13.891 104.08 13.819C103.944 13.739 103.76 13.679 103.528 13.639C103.296 13.599 103.04 13.559 102.76 13.519C102.488 13.479 102.212 13.427 101.932 13.363C101.652 13.291 101.396 13.187 101.164 13.051C100.932 12.915 100.744 12.731 100.6 12.499C100.464 12.267 100.396 11.967 100.396 11.599C100.396 11.191 100.512 10.831 100.744 10.519C100.984 10.207 101.328 9.96299 101.776 9.78699C102.224 9.60299 102.76 9.51099 103.384 9.51099C103.824 9.51099 104.272 9.55899 104.728 9.65499C105.184 9.75099 105.564 9.89099 105.868 10.075L105.244 11.407C104.932 11.223 104.616 11.099 104.296 11.035C103.984 10.963 103.68 10.927 103.384 10.927C102.968 10.927 102.664 10.983 102.472 11.095C102.28 11.207 102.184 11.351 102.184 11.527C102.184 11.687 102.252 11.807 102.388 11.887C102.532 11.967 102.72 12.031 102.952 12.079C103.184 12.127 103.436 12.171 103.708 12.211C103.988 12.243 104.268 12.295 104.548 12.367C104.828 12.439 105.08 12.543 105.304 12.679C105.536 12.807 105.724 12.987 105.868 13.219C106.012 13.443 106.084 13.739 106.084 14.107C106.084 14.507 105.964 14.863 105.724 15.175C105.484 15.479 105.136 15.719 104.68 15.895C104.232 16.071 103.684 16.159 103.036 16.159ZM110.311 16.159C109.623 16.159 109.011 16.015 108.475 15.727C107.947 15.439 107.527 15.047 107.215 14.551C106.911 14.047 106.759 13.475 106.759 12.835C106.759 12.187 106.911 11.615 107.215 11.119C107.527 10.615 107.947 10.223 108.475 9.94299C109.011 9.65499 109.623 9.51099 110.311 9.51099C110.991 9.51099 111.599 9.65499 112.135 9.94299C112.671 10.223 113.091 10.611 113.395 11.107C113.699 11.603 113.851 12.179 113.851 12.835C113.851 13.475 113.699 14.047 113.395 14.551C113.091 15.047 112.671 15.439 112.135 15.727C111.599 16.015 110.991 16.159 110.311 16.159ZM110.311 14.623C110.623 14.623 110.903 14.551 111.151 14.407C111.399 14.263 111.595 14.059 111.739 13.795C111.883 13.523 111.955 13.203 111.955 12.835C111.955 12.459 111.883 12.139 111.739 11.875C111.595 11.611 111.399 11.407 111.151 11.263C110.903 11.119 110.623 11.047 110.311 11.047C109.999 11.047 109.719 11.119 109.471 11.263C109.223 11.407 109.023 11.611 108.871 11.875C108.727 12.139 108.655 12.459 108.655 12.835C108.655 13.203 108.727 13.523 108.871 13.795C109.023 14.059 109.223 14.263 109.471 14.407C109.719 14.551 109.999 14.623 110.311 14.623ZM117.274 16.159C116.722 16.159 116.19 16.095 115.678 15.967C115.174 15.831 114.774 15.663 114.478 15.463L115.102 14.119C115.398 14.303 115.746 14.455 116.146 14.575C116.554 14.687 116.954 14.743 117.346 14.743C117.778 14.743 118.082 14.691 118.258 14.587C118.442 14.483 118.534 14.339 118.534 14.155C118.534 14.003 118.462 13.891 118.318 13.819C118.182 13.739 117.998 13.679 117.766 13.639C117.534 13.599 117.278 13.559 116.998 13.519C116.726 13.479 116.45 13.427 116.17 13.363C115.89 13.291 115.634 13.187 115.402 13.051C115.17 12.915 114.982 12.731 114.838 12.499C114.702 12.267 114.634 11.967 114.634 11.599C114.634 11.191 114.75 10.831 114.982 10.519C115.222 10.207 115.566 9.96299 116.014 9.78699C116.462 9.60299 116.998 9.51099 117.622 9.51099C118.062 9.51099 118.51 9.55899 118.966 9.65499C119.422 9.75099 119.802 9.89099 120.106 10.075L119.482 11.407C119.17 11.223 118.854 11.099 118.534 11.035C118.222 10.963 117.918 10.927 117.622 10.927C117.206 10.927 116.902 10.983 116.71 11.095C116.518 11.207 116.422 11.351 116.422 11.527C116.422 11.687 116.49 11.807 116.626 11.887C116.77 11.967 116.958 12.031 117.19 12.079C117.422 12.127 117.674 12.171 117.946 12.211C118.226 12.243 118.506 12.295 118.786 12.367C119.066 12.439 119.318 12.543 119.542 12.679C119.774 12.807 119.962 12.987 120.106 13.219C120.25 13.443 120.322 13.739 120.322 14.107C120.322 14.507 120.202 14.863 119.962 15.175C119.722 15.479 119.374 15.719 118.918 15.895C118.47 16.071 117.922 16.159 117.274 16.159Z" fill="#FC2902"/>
<rect x="129" width="23.575" height="23.126" rx="11.563" fill="#FC2902"/>
<path d="M145.15 12.563H134C133.717 12.563 133.479 12.4672 133.287 12.2755C133.096 12.0838 133 11.8463 133 11.563C133 11.2797 133.096 11.0422 133.287 10.8505C133.479 10.6588 133.717 10.563 134 10.563H145.15L142.3 7.713C142.1 7.513 142.004 7.27967 142.012 7.013C142.021 6.74633 142.117 6.513 142.3 6.313C142.5 6.113 142.738 6.00883 143.012 6.0005C143.287 5.99217 143.525 6.088 143.725 6.288L148.3 10.863C148.4 10.963 148.471 11.0713 148.512 11.188C148.554 11.3047 148.575 11.4297 148.575 11.563C148.575 11.6963 148.554 11.8213 148.512 11.938C148.471 12.0547 148.4 12.163 148.3 12.263L143.725 16.838C143.525 17.038 143.287 17.1338 143.012 17.1255C142.738 17.1172 142.5 17.013 142.3 16.813C142.117 16.613 142.021 16.3797 142.012 16.113C142.004 15.8463 142.1 15.613 142.3 15.413L145.15 12.563Z" fill="white"/>
</svg>
