<svg width="372" height="47" viewBox="0 0 372 47" fill="none" xmlns="http://www.w3.org/2000/svg">
<path d="M18.95 46.7C8.95 46.7 0.899994 39.05 0.899994 28.6V28.5C0.899994 18.3 8.75 10.3 19.35 10.3C26.5 10.3 31.1 13.3 34.2 17.6L26.9 23.25C24.9 20.75 22.6 19.15 19.25 19.15C14.35 19.15 10.9 23.3 10.9 28.4V28.5C10.9 33.75 14.35 37.85 19.25 37.85C22.9 37.85 25.05 36.15 27.15 33.6L34.45 38.8C31.15 43.35 26.7 46.7 18.95 46.7Z" fill="url(#paint0_linear_92_3)"/>
<path d="M45.8234 46.6C40.6734 46.6 36.7234 43.65 36.7234 38.25V38.15C36.7234 32.55 40.9734 29.65 47.3234 29.65C49.8234 29.65 52.2734 30.15 53.8234 30.7V30.25C53.8234 27.45 52.0734 25.85 48.4234 25.85C45.5734 25.85 43.3734 26.4 40.9734 27.35L39.0234 20.65C42.0734 19.4 45.3234 18.55 49.9734 18.55C54.8234 18.55 58.1234 19.7 60.2734 21.85C62.3234 23.85 63.1734 26.65 63.1734 30.45V46H53.7734V43.2C51.9234 45.25 49.3734 46.6 45.8234 46.6ZM49.2234 40.65C51.9734 40.65 53.9234 38.9 53.9234 36.2V34.95C52.9734 34.55 51.6234 34.25 50.2234 34.25C47.4734 34.25 45.8734 35.6 45.8734 37.6V37.7C45.8734 39.55 47.2734 40.65 49.2234 40.65Z" fill="url(#paint1_linear_92_3)"/>
<path d="M78.7551 46.6C74.2051 46.6 69.7051 45.3 65.9551 42.6L69.5051 36.85C72.6051 38.9 76.0051 39.95 78.8051 39.95C80.4551 39.95 81.2051 39.45 81.2051 38.5V38.4C81.2051 37.35 79.7051 36.9 76.8551 36.1C71.5051 34.7 67.2551 32.9 67.2551 27.45V27.35C67.2551 21.6 71.8551 18.4 78.1051 18.4C82.0551 18.4 86.1551 19.55 89.2551 21.55L86.0051 27.55C83.2051 26 80.1551 25.05 78.0051 25.05C76.5551 25.05 75.8051 25.6 75.8051 26.35V26.45C75.8051 27.5 77.3551 28 80.2051 28.85C85.5551 30.35 89.8051 32.2 89.8051 37.45V37.55C89.8051 43.5 85.3551 46.6 78.7551 46.6Z" fill="url(#paint2_linear_92_3)"/>
<path d="M107.489 46.65C98.8387 46.65 92.5887 40.3 92.5887 32.6V32.5C92.5887 24.8 98.8887 18.35 107.589 18.35C116.239 18.35 122.489 24.7 122.489 32.4V32.5C122.489 40.2 116.189 46.65 107.489 46.65ZM107.589 38.6C111.039 38.6 113.239 35.85 113.239 32.6V32.5C113.239 29.2 110.839 26.4 107.489 26.4C104.039 26.4 101.839 29.15 101.839 32.4V32.5C101.839 35.8 104.239 38.6 107.589 38.6Z" fill="url(#paint3_linear_92_3)"/>
<path d="M137.105 46.6C132.555 46.6 128.055 45.3 124.305 42.6L127.855 36.85C130.955 38.9 134.355 39.95 137.155 39.95C138.805 39.95 139.555 39.45 139.555 38.5V38.4C139.555 37.35 138.055 36.9 135.205 36.1C129.855 34.7 125.605 32.9 125.605 27.45V27.35C125.605 21.6 130.205 18.4 136.455 18.4C140.405 18.4 144.505 19.55 147.605 21.55L144.355 27.55C141.555 26 138.505 25.05 136.355 25.05C134.905 25.05 134.155 25.6 134.155 26.35V26.45C134.155 27.5 135.705 28 138.555 28.85C143.905 30.35 148.155 32.2 148.155 37.45V37.55C148.155 43.5 143.705 46.6 137.105 46.6Z" fill="url(#paint4_linear_92_3)"/>
<path d="M176.855 46.6C170.455 46.6 164.905 41.25 164.905 32.6V32.5C164.905 23.7 170.405 18.35 176.805 18.35C180.905 18.35 183.305 20.2 185.105 22.25V9.5H194.605V46H185.105V42.4C183.255 44.65 180.905 46.6 176.855 46.6ZM179.755 38.65C182.805 38.65 185.255 36.1 185.255 32.5V32.4C185.255 28.85 182.805 26.3 179.755 26.3C176.705 26.3 174.205 28.8 174.205 32.4V32.5C174.205 36.1 176.705 38.65 179.755 38.65Z" fill="url(#paint5_linear_92_3)"/>
<path d="M213.095 46.65C204.595 46.65 198.595 41 198.595 32.6V32.5C198.595 24.6 204.245 18.35 212.245 18.35C221.595 18.35 225.895 25.2 225.895 33.15C225.895 33.75 225.895 34.45 225.845 35.1H207.745C208.495 38.05 210.645 39.55 213.595 39.55C215.845 39.55 217.645 38.7 219.595 36.8L224.845 41.15C222.245 44.45 218.495 46.65 213.095 46.65ZM207.595 30.25H216.995C216.645 27.25 214.895 25.35 212.295 25.35C209.795 25.35 208.095 27.3 207.595 30.25Z" fill="url(#paint6_linear_92_3)"/>
<path d="M254.835 8.6L260.235 0.5L269.285 3.25L261.885 8.6H254.835ZM244.385 46V11H272.535V19.25H253.985V24.55H270.785V32.2H253.985V37.75H272.785V46H244.385Z" fill="url(#paint7_linear_92_3)"/>
<path d="M275.084 46L284.184 32.35L275.234 18.95H285.484L289.484 25.6L293.484 18.95H303.534L294.634 32.3L303.734 46H293.534L289.334 39.05L285.084 46H275.084Z" fill="url(#paint8_linear_92_3)"/>
<path d="M306.677 16.5V9.5H316.577V16.5H306.677ZM306.877 46V18.95H316.377V46H306.877Z" fill="url(#paint9_linear_92_3)"/>
<path d="M332.417 46.55C326.717 46.55 323.317 44.05 323.317 37.6V26.6H320.117V18.95H323.317V12.1H332.817V18.95H339.117V26.6H332.817V35.75C332.817 37.65 333.667 38.45 335.417 38.45C336.667 38.45 337.867 38.1 339.017 37.55V45C337.317 45.95 335.067 46.55 332.417 46.55Z" fill="url(#paint10_linear_92_3)"/>
<path d="M356.268 46.65C347.618 46.65 341.368 40.3 341.368 32.6V32.5C341.368 24.8 347.668 18.35 356.368 18.35C365.018 18.35 371.268 24.7 371.268 32.4V32.5C371.268 40.2 364.968 46.65 356.268 46.65ZM356.368 38.6C359.818 38.6 362.018 35.85 362.018 32.6V32.5C362.018 29.2 359.618 26.4 356.268 26.4C352.818 26.4 350.618 29.15 350.618 32.4V32.5C350.618 35.8 353.018 38.6 356.368 38.6Z" fill="url(#paint11_linear_92_3)"/>
<defs>
<linearGradient id="paint0_linear_92_3" x1="15.2139" y1="15.4828" x2="350.949" y2="24.5359" gradientUnits="userSpaceOnUse">
<stop stop-color="#0047A6"/>
<stop offset="1" stop-color="#FC2902"/>
</linearGradient>
<linearGradient id="paint1_linear_92_3" x1="15.2139" y1="15.4828" x2="350.949" y2="24.5359" gradientUnits="userSpaceOnUse">
<stop stop-color="#0047A6"/>
<stop offset="1" stop-color="#FC2902"/>
</linearGradient>
<linearGradient id="paint2_linear_92_3" x1="15.2139" y1="15.4828" x2="350.949" y2="24.5359" gradientUnits="userSpaceOnUse">
<stop stop-color="#0047A6"/>
<stop offset="1" stop-color="#FC2902"/>
</linearGradient>
<linearGradient id="paint3_linear_92_3" x1="15.2139" y1="15.4828" x2="350.949" y2="24.5359" gradientUnits="userSpaceOnUse">
<stop stop-color="#0047A6"/>
<stop offset="1" stop-color="#FC2902"/>
</linearGradient>
<linearGradient id="paint4_linear_92_3" x1="15.2139" y1="15.4828" x2="350.949" y2="24.5359" gradientUnits="userSpaceOnUse">
<stop stop-color="#0047A6"/>
<stop offset="1" stop-color="#FC2902"/>
</linearGradient>
<linearGradient id="paint5_linear_92_3" x1="15.2139" y1="15.4828" x2="350.949" y2="24.5359" gradientUnits="userSpaceOnUse">
<stop stop-color="#0047A6"/>
<stop offset="1" stop-color="#FC2902"/>
</linearGradient>
<linearGradient id="paint6_linear_92_3" x1="15.2139" y1="15.4828" x2="350.949" y2="24.5359" gradientUnits="userSpaceOnUse">
<stop stop-color="#0047A6"/>
<stop offset="1" stop-color="#FC2902"/>
</linearGradient>
<linearGradient id="paint7_linear_92_3" x1="15.2139" y1="15.4828" x2="350.949" y2="24.5359" gradientUnits="userSpaceOnUse">
<stop stop-color="#0047A6"/>
<stop offset="1" stop-color="#FC2902"/>
</linearGradient>
<linearGradient id="paint8_linear_92_3" x1="15.2139" y1="15.4828" x2="350.949" y2="24.5359" gradientUnits="userSpaceOnUse">
<stop stop-color="#0047A6"/>
<stop offset="1" stop-color="#FC2902"/>
</linearGradient>
<linearGradient id="paint9_linear_92_3" x1="15.2139" y1="15.4828" x2="350.949" y2="24.5359" gradientUnits="userSpaceOnUse">
<stop stop-color="#0047A6"/>
<stop offset="1" stop-color="#FC2902"/>
</linearGradient>
<linearGradient id="paint10_linear_92_3" x1="15.2139" y1="15.4828" x2="350.949" y2="24.5359" gradientUnits="userSpaceOnUse">
<stop stop-color="#0047A6"/>
<stop offset="1" stop-color="#FC2902"/>
</linearGradient>
<linearGradient id="paint11_linear_92_3" x1="15.2139" y1="15.4828" x2="350.949" y2="24.5359" gradientUnits="userSpaceOnUse">
<stop stop-color="#0047A6"/>
<stop offset="1" stop-color="#FC2902"/>
</linearGradient>
</defs>
</svg>
