<svg width="192" height="20" viewBox="0 0 192 20" fill="none" xmlns="http://www.w3.org/2000/svg">
<path d="M1.328 16V4.8H6.416C7.632 4.8 8.704 5.03467 9.632 5.504C10.56 5.96267 11.2853 6.608 11.808 7.44C12.3307 8.272 12.592 9.25867 12.592 10.4C12.592 11.5307 12.3307 12.5173 11.808 13.36C11.2853 14.192 10.56 14.8427 9.632 15.312C8.704 15.7707 7.632 16 6.416 16H1.328ZM3.92 13.872H6.288C7.03467 13.872 7.68 13.7333 8.224 13.456C8.77867 13.168 9.20533 12.7627 9.504 12.24C9.81333 11.7173 9.968 11.104 9.968 10.4C9.968 9.68533 9.81333 9.072 9.504 8.56C9.20533 8.03733 8.77867 7.63733 8.224 7.36C7.68 7.072 7.03467 6.928 6.288 6.928H3.92V13.872ZM18.6428 16.128C17.6614 16.128 16.7974 15.936 16.0508 15.552C15.3148 15.168 14.7441 14.6453 14.3388 13.984C13.9334 13.312 13.7308 12.5493 13.7308 11.696C13.7308 10.832 13.9281 10.0693 14.3228 9.408C14.7281 8.736 15.2774 8.21333 15.9708 7.84C16.6641 7.456 17.4481 7.264 18.3228 7.264C19.1654 7.264 19.9228 7.44533 20.5948 7.808C21.2774 8.16 21.8161 8.672 22.2108 9.344C22.6054 10.0053 22.8028 10.8 22.8028 11.728C22.8028 11.824 22.7974 11.936 22.7868 12.064C22.7761 12.1813 22.7654 12.2933 22.7548 12.4H15.7628V10.944H21.4427L20.4828 11.376C20.4828 10.928 20.3921 10.5387 20.2108 10.208C20.0294 9.87733 19.7788 9.62133 19.4588 9.44C19.1388 9.248 18.7654 9.152 18.3388 9.152C17.9121 9.152 17.5334 9.248 17.2028 9.44C16.8828 9.62133 16.6321 9.88267 16.4508 10.224C16.2694 10.5547 16.1788 10.9493 16.1788 11.408V11.792C16.1788 12.2613 16.2801 12.6773 16.4828 13.04C16.6961 13.392 16.9894 13.664 17.3628 13.856C17.7468 14.0373 18.1948 14.128 18.7068 14.128C19.1654 14.128 19.5654 14.0587 19.9068 13.92C20.2588 13.7813 20.5788 13.5733 20.8668 13.296L22.1948 14.736C21.8001 15.184 21.3041 15.5307 20.7068 15.776C20.1094 16.0107 19.4214 16.128 18.6428 16.128ZM27.3605 16.128C26.6245 16.128 25.9152 16.0427 25.2325 15.872C24.5605 15.6907 24.0272 15.4667 23.6325 15.2L24.4645 13.408C24.8592 13.6533 25.3232 13.856 25.8565 14.016C26.4005 14.1653 26.9338 14.24 27.4565 14.24C28.0325 14.24 28.4378 14.1707 28.6725 14.032C28.9178 13.8933 29.0405 13.7013 29.0405 13.456C29.0405 13.2533 28.9445 13.104 28.7525 13.008C28.5712 12.9013 28.3258 12.8213 28.0165 12.768C27.7072 12.7147 27.3658 12.6613 26.9925 12.608C26.6298 12.5547 26.2618 12.4853 25.8885 12.4C25.5152 12.304 25.1738 12.1653 24.8645 11.984C24.5552 11.8027 24.3045 11.5573 24.1125 11.248C23.9312 10.9387 23.8405 10.5387 23.8405 10.048C23.8405 9.504 23.9952 9.024 24.3045 8.608C24.6245 8.192 25.0832 7.86667 25.6805 7.632C26.2778 7.38667 26.9925 7.264 27.8245 7.264C28.4112 7.264 29.0085 7.328 29.6165 7.456C30.2245 7.584 30.7312 7.77067 31.1365 8.016L30.3045 9.792C29.8885 9.54667 29.4672 9.38133 29.0405 9.296C28.6245 9.2 28.2192 9.152 27.8245 9.152C27.2698 9.152 26.8645 9.22667 26.6085 9.376C26.3525 9.52533 26.2245 9.71733 26.2245 9.952C26.2245 10.1653 26.3152 10.3253 26.4965 10.432C26.6885 10.5387 26.9392 10.624 27.2485 10.688C27.5578 10.752 27.8938 10.8107 28.2565 10.864C28.6298 10.9067 29.0032 10.976 29.3765 11.072C29.7498 11.168 30.0858 11.3067 30.3845 11.488C30.6938 11.6587 30.9445 11.8987 31.1365 12.208C31.3285 12.5067 31.4245 12.9013 31.4245 13.392C31.4245 13.9253 31.2645 14.4 30.9445 14.816C30.6245 15.2213 30.1605 15.5413 29.5525 15.776C28.9552 16.0107 28.2245 16.128 27.3605 16.128ZM38.2445 16V14.32L38.0845 13.952V10.944C38.0845 10.4107 37.9192 9.99467 37.5885 9.696C37.2685 9.39733 36.7725 9.248 36.1005 9.248C35.6418 9.248 35.1885 9.32267 34.7405 9.472C34.3032 9.61067 33.9298 9.80267 33.6205 10.048L32.7245 8.304C33.1938 7.97333 33.7592 7.71733 34.4205 7.536C35.0818 7.35467 35.7538 7.264 36.4365 7.264C37.7485 7.264 38.7672 7.57333 39.4925 8.192C40.2178 8.81067 40.5805 9.776 40.5805 11.088V16H38.2445ZM35.6205 16.128C34.9485 16.128 34.3725 16.016 33.8925 15.792C33.4125 15.5573 33.0445 15.2427 32.7885 14.848C32.5325 14.4533 32.4045 14.0107 32.4045 13.52C32.4045 13.008 32.5272 12.56 32.7725 12.176C33.0285 11.792 33.4285 11.4933 33.9725 11.28C34.5165 11.056 35.2258 10.944 36.1005 10.944H38.3885V12.4H36.3725C35.7858 12.4 35.3805 12.496 35.1565 12.688C34.9432 12.88 34.8365 13.12 34.8365 13.408C34.8365 13.728 34.9592 13.984 35.2045 14.176C35.4605 14.3573 35.8072 14.448 36.2445 14.448C36.6605 14.448 37.0338 14.352 37.3645 14.16C37.6952 13.9573 37.9352 13.664 38.0845 13.28L38.4685 14.432C38.2872 14.9867 37.9565 15.408 37.4765 15.696C36.9965 15.984 36.3778 16.128 35.6205 16.128ZM42.8395 16V7.392H45.2235V9.824L44.8875 9.12C45.1435 8.512 45.5542 8.05333 46.1195 7.744C46.6848 7.424 47.3728 7.264 48.1835 7.264V9.568C48.0768 9.55733 47.9808 9.552 47.8955 9.552C47.8102 9.54133 47.7195 9.536 47.6235 9.536C46.9408 9.536 46.3862 9.73333 45.9595 10.128C45.5435 10.512 45.3355 11.1147 45.3355 11.936V16H42.8395ZM49.6676 16V7.392H52.0516V9.824L51.7156 9.12C51.9716 8.512 52.3823 8.05333 52.9476 7.744C53.513 7.424 54.201 7.264 55.0116 7.264V9.568C54.905 9.55733 54.809 9.552 54.7236 9.552C54.6383 9.54133 54.5476 9.536 54.4516 9.536C53.769 9.536 53.2143 9.73333 52.7876 10.128C52.3716 10.512 52.1636 11.1147 52.1636 11.936V16H49.6676ZM60.5136 16.128C59.5963 16.128 58.7803 15.936 58.0656 15.552C57.3616 15.168 56.8016 14.6453 56.3856 13.984C55.9803 13.312 55.7776 12.5493 55.7776 11.696C55.7776 10.832 55.9803 10.0693 56.3856 9.408C56.8016 8.736 57.3616 8.21333 58.0656 7.84C58.7803 7.456 59.5963 7.264 60.5136 7.264C61.4203 7.264 62.231 7.456 62.9456 7.84C63.6603 8.21333 64.2203 8.73067 64.6256 9.392C65.031 10.0533 65.2336 10.8213 65.2336 11.696C65.2336 12.5493 65.031 13.312 64.6256 13.984C64.2203 14.6453 63.6603 15.168 62.9456 15.552C62.231 15.936 61.4203 16.128 60.5136 16.128ZM60.5136 14.08C60.9296 14.08 61.303 13.984 61.6336 13.792C61.9643 13.6 62.2256 13.328 62.4176 12.976C62.6096 12.6133 62.7056 12.1867 62.7056 11.696C62.7056 11.1947 62.6096 10.768 62.4176 10.416C62.2256 10.064 61.9643 9.792 61.6336 9.6C61.303 9.408 60.9296 9.312 60.5136 9.312C60.0976 9.312 59.7243 9.408 59.3936 9.6C59.063 9.792 58.7963 10.064 58.5936 10.416C58.4016 10.768 58.3056 11.1947 58.3056 11.696C58.3056 12.1867 58.4016 12.6133 58.5936 12.976C58.7963 13.328 59.063 13.6 59.3936 13.792C59.7243 13.984 60.0976 14.08 60.5136 14.08ZM66.902 16V4.128H69.398V16H66.902ZM71.7145 16V4.128H74.2105V16H71.7145ZM80.623 16.128C79.7057 16.128 78.8897 15.936 78.175 15.552C77.471 15.168 76.911 14.6453 76.495 13.984C76.0897 13.312 75.887 12.5493 75.887 11.696C75.887 10.832 76.0897 10.0693 76.495 9.408C76.911 8.736 77.471 8.21333 78.175 7.84C78.8897 7.456 79.7057 7.264 80.623 7.264C81.5297 7.264 82.3403 7.456 83.055 7.84C83.7697 8.21333 84.3297 8.73067 84.735 9.392C85.1403 10.0533 85.343 10.8213 85.343 11.696C85.343 12.5493 85.1403 13.312 84.735 13.984C84.3297 14.6453 83.7697 15.168 83.055 15.552C82.3403 15.936 81.5297 16.128 80.623 16.128ZM80.623 14.08C81.039 14.08 81.4123 13.984 81.743 13.792C82.0737 13.6 82.335 13.328 82.527 12.976C82.719 12.6133 82.815 12.1867 82.815 11.696C82.815 11.1947 82.719 10.768 82.527 10.416C82.335 10.064 82.0737 9.792 81.743 9.6C81.4123 9.408 81.039 9.312 80.623 9.312C80.207 9.312 79.8337 9.408 79.503 9.6C79.1723 9.792 78.9057 10.064 78.703 10.416C78.511 10.768 78.415 11.1947 78.415 11.696C78.415 12.1867 78.511 12.6133 78.703 12.976C78.9057 13.328 79.1723 13.6 79.503 13.792C79.8337 13.984 80.207 14.08 80.623 14.08ZM95.2386 16.128C94.428 16.128 93.6973 15.9467 93.0466 15.584C92.396 15.2107 91.8786 14.6933 91.4946 14.032C91.1213 13.3707 90.9346 12.592 90.9346 11.696C90.9346 10.7893 91.1213 10.0053 91.4946 9.344C91.8786 8.68267 92.396 8.17067 93.0466 7.808C93.6973 7.44533 94.428 7.264 95.2386 7.264C95.964 7.264 96.5986 7.424 97.1426 7.744C97.6866 8.064 98.108 8.54933 98.4066 9.2C98.7053 9.85067 98.8546 10.6827 98.8546 11.696C98.8546 12.6987 98.7106 13.5307 98.4226 14.192C98.1346 14.8427 97.7186 15.328 97.1746 15.648C96.6413 15.968 95.996 16.128 95.2386 16.128ZM95.6706 14.08C96.076 14.08 96.444 13.984 96.7746 13.792C97.1053 13.6 97.3666 13.328 97.5586 12.976C97.7613 12.6133 97.8626 12.1867 97.8626 11.696C97.8626 11.1947 97.7613 10.768 97.5586 10.416C97.3666 10.064 97.1053 9.792 96.7746 9.6C96.444 9.408 96.076 9.312 95.6706 9.312C95.2546 9.312 94.8813 9.408 94.5506 9.6C94.22 9.792 93.9533 10.064 93.7506 10.416C93.5586 10.768 93.4626 11.1947 93.4626 11.696C93.4626 12.1867 93.5586 12.6133 93.7506 12.976C93.9533 13.328 94.22 13.6 94.5506 13.792C94.8813 13.984 95.2546 14.08 95.6706 14.08ZM97.9266 16V14.24L97.9746 11.68L97.8146 9.136V4.128H100.311V16H97.9266ZM106.893 16.128C105.911 16.128 105.047 15.936 104.301 15.552C103.565 15.168 102.994 14.6453 102.589 13.984C102.183 13.312 101.981 12.5493 101.981 11.696C101.981 10.832 102.178 10.0693 102.573 9.408C102.978 8.736 103.527 8.21333 104.221 7.84C104.914 7.456 105.698 7.264 106.573 7.264C107.415 7.264 108.173 7.44533 108.845 7.808C109.527 8.16 110.066 8.672 110.461 9.344C110.855 10.0053 111.053 10.8 111.053 11.728C111.053 11.824 111.047 11.936 111.037 12.064C111.026 12.1813 111.015 12.2933 111.005 12.4H104.013V10.944H109.693L108.733 11.376C108.733 10.928 108.642 10.5387 108.461 10.208C108.279 9.87733 108.029 9.62133 107.709 9.44C107.389 9.248 107.015 9.152 106.589 9.152C106.162 9.152 105.783 9.248 105.453 9.44C105.133 9.62133 104.882 9.88267 104.701 10.224C104.519 10.5547 104.429 10.9493 104.429 11.408V11.792C104.429 12.2613 104.53 12.6773 104.733 13.04C104.946 13.392 105.239 13.664 105.613 13.856C105.997 14.0373 106.445 14.128 106.957 14.128C107.415 14.128 107.815 14.0587 108.157 13.92C108.509 13.7813 108.829 13.5733 109.117 13.296L110.445 14.736C110.05 15.184 109.554 15.5307 108.957 15.776C108.359 16.0107 107.671 16.128 106.893 16.128ZM121.102 16.192C120.206 16.192 119.347 16.0747 118.526 15.84C117.704 15.5947 117.043 15.28 116.542 14.896L117.422 12.944C117.902 13.2853 118.467 13.568 119.118 13.792C119.779 14.0053 120.446 14.112 121.118 14.112C121.63 14.112 122.04 14.064 122.35 13.968C122.67 13.8613 122.904 13.7173 123.054 13.536C123.203 13.3547 123.278 13.1467 123.278 12.912C123.278 12.6133 123.16 12.3787 122.926 12.208C122.691 12.0267 122.382 11.8827 121.998 11.776C121.614 11.6587 121.187 11.552 120.718 11.456C120.259 11.3493 119.795 11.2213 119.326 11.072C118.867 10.9227 118.446 10.7307 118.062 10.496C117.678 10.2613 117.363 9.952 117.118 9.568C116.883 9.184 116.766 8.69333 116.766 8.096C116.766 7.456 116.936 6.87467 117.278 6.352C117.63 5.81867 118.152 5.39733 118.846 5.088C119.55 4.768 120.43 4.608 121.486 4.608C122.19 4.608 122.883 4.69333 123.566 4.864C124.248 5.024 124.851 5.26933 125.374 5.6L124.574 7.568C124.051 7.26933 123.528 7.05067 123.006 6.912C122.483 6.76267 121.971 6.688 121.47 6.688C120.968 6.688 120.558 6.74667 120.238 6.864C119.918 6.98133 119.688 7.136 119.55 7.328C119.411 7.50933 119.342 7.72267 119.342 7.968C119.342 8.256 119.459 8.49067 119.694 8.672C119.928 8.84267 120.238 8.98133 120.622 9.088C121.006 9.19467 121.427 9.30133 121.886 9.408C122.355 9.51467 122.819 9.63733 123.278 9.776C123.747 9.91467 124.174 10.1013 124.558 10.336C124.942 10.5707 125.251 10.88 125.486 11.264C125.731 11.648 125.854 12.1333 125.854 12.72C125.854 13.3493 125.678 13.9253 125.326 14.448C124.974 14.9707 124.446 15.392 123.742 15.712C123.048 16.032 122.168 16.192 121.102 16.192ZM131.545 16.128C130.628 16.128 129.812 15.936 129.097 15.552C128.393 15.168 127.833 14.6453 127.417 13.984C127.012 13.312 126.809 12.5493 126.809 11.696C126.809 10.832 127.012 10.0693 127.417 9.408C127.833 8.736 128.393 8.21333 129.097 7.84C129.812 7.456 130.628 7.264 131.545 7.264C132.452 7.264 133.262 7.456 133.977 7.84C134.692 8.21333 135.252 8.73067 135.657 9.392C136.062 10.0533 136.265 10.8213 136.265 11.696C136.265 12.5493 136.062 13.312 135.657 13.984C135.252 14.6453 134.692 15.168 133.977 15.552C133.262 15.936 132.452 16.128 131.545 16.128ZM131.545 14.08C131.961 14.08 132.334 13.984 132.665 13.792C132.996 13.6 133.257 13.328 133.449 12.976C133.641 12.6133 133.737 12.1867 133.737 11.696C133.737 11.1947 133.641 10.768 133.449 10.416C133.257 10.064 132.996 9.792 132.665 9.6C132.334 9.408 131.961 9.312 131.545 9.312C131.129 9.312 130.756 9.408 130.425 9.6C130.094 9.792 129.828 10.064 129.625 10.416C129.433 10.768 129.337 11.1947 129.337 11.696C129.337 12.1867 129.433 12.6133 129.625 12.976C129.828 13.328 130.094 13.6 130.425 13.792C130.756 13.984 131.129 14.08 131.545 14.08ZM138.237 16V7.2C138.237 6.22933 138.525 5.456 139.101 4.88C139.677 4.29333 140.499 4 141.565 4C141.928 4 142.275 4.03733 142.605 4.112C142.947 4.18667 143.235 4.304 143.469 4.464L142.813 6.272C142.675 6.176 142.52 6.10133 142.349 6.048C142.179 5.99467 141.997 5.968 141.805 5.968C141.443 5.968 141.16 6.07467 140.957 6.288C140.765 6.49067 140.669 6.8 140.669 7.216V8.016L140.733 9.088V16H138.237ZM136.909 9.504V7.584H142.877V9.504H136.909ZM147.641 16.128C146.627 16.128 145.838 15.872 145.273 15.36C144.707 14.8373 144.425 14.064 144.425 13.04V5.488H146.921V13.008C146.921 13.3707 147.017 13.6533 147.209 13.856C147.401 14.048 147.662 14.144 147.993 14.144C148.387 14.144 148.723 14.0373 149.001 13.824L149.673 15.584C149.417 15.7653 149.107 15.904 148.745 16C148.393 16.0853 148.025 16.128 147.641 16.128ZM143.097 9.504V7.584H149.065V9.504H143.097ZM152.886 16L149.782 7.392H152.134L154.71 14.8H153.59L156.278 7.392H158.39L160.998 14.8H159.878L162.534 7.392H164.742L161.622 16H159.206L156.918 9.648H157.654L155.286 16H152.886ZM170.901 16V14.32L170.741 13.952V10.944C170.741 10.4107 170.575 9.99467 170.245 9.696C169.925 9.39733 169.429 9.248 168.757 9.248C168.298 9.248 167.845 9.32267 167.397 9.472C166.959 9.61067 166.586 9.80267 166.277 10.048L165.381 8.304C165.85 7.97333 166.415 7.71733 167.077 7.536C167.738 7.35467 168.41 7.264 169.093 7.264C170.405 7.264 171.423 7.57333 172.149 8.192C172.874 8.81067 173.237 9.776 173.237 11.088V16H170.901ZM168.277 16.128C167.605 16.128 167.029 16.016 166.549 15.792C166.069 15.5573 165.701 15.2427 165.445 14.848C165.189 14.4533 165.061 14.0107 165.061 13.52C165.061 13.008 165.183 12.56 165.429 12.176C165.685 11.792 166.085 11.4933 166.629 11.28C167.173 11.056 167.882 10.944 168.757 10.944H171.045V12.4H169.029C168.442 12.4 168.037 12.496 167.813 12.688C167.599 12.88 167.493 13.12 167.493 13.408C167.493 13.728 167.615 13.984 167.861 14.176C168.117 14.3573 168.463 14.448 168.901 14.448C169.317 14.448 169.69 14.352 170.021 14.16C170.351 13.9573 170.591 13.664 170.741 13.28L171.125 14.432C170.943 14.9867 170.613 15.408 170.133 15.696C169.653 15.984 169.034 16.128 168.277 16.128ZM175.496 16V7.392H177.88V9.824L177.544 9.12C177.8 8.512 178.21 8.05333 178.776 7.744C179.341 7.424 180.029 7.264 180.84 7.264V9.568C180.733 9.55733 180.637 9.552 180.552 9.552C180.466 9.54133 180.376 9.536 180.28 9.536C179.597 9.536 179.042 9.73333 178.616 10.128C178.2 10.512 177.992 11.1147 177.992 11.936V16H175.496ZM186.518 16.128C185.536 16.128 184.672 15.936 183.926 15.552C183.19 15.168 182.619 14.6453 182.214 13.984C181.808 13.312 181.606 12.5493 181.606 11.696C181.606 10.832 181.803 10.0693 182.198 9.408C182.603 8.736 183.152 8.21333 183.846 7.84C184.539 7.456 185.323 7.264 186.198 7.264C187.04 7.264 187.798 7.44533 188.47 7.808C189.152 8.16 189.691 8.672 190.086 9.344C190.48 10.0053 190.678 10.8 190.678 11.728C190.678 11.824 190.672 11.936 190.662 12.064C190.651 12.1813 190.64 12.2933 190.63 12.4H183.638V10.944H189.318L188.358 11.376C188.358 10.928 188.267 10.5387 188.086 10.208C187.904 9.87733 187.654 9.62133 187.334 9.44C187.014 9.248 186.64 9.152 186.214 9.152C185.787 9.152 185.408 9.248 185.078 9.44C184.758 9.62133 184.507 9.88267 184.326 10.224C184.144 10.5547 184.054 10.9493 184.054 11.408V11.792C184.054 12.2613 184.155 12.6773 184.358 13.04C184.571 13.392 184.864 13.664 185.238 13.856C185.622 14.0373 186.07 14.128 186.582 14.128C187.04 14.128 187.44 14.0587 187.782 13.92C188.134 13.7813 188.454 13.5733 188.742 13.296L190.07 14.736C189.675 15.184 189.179 15.5307 188.582 15.776C187.984 16.0107 187.296 16.128 186.518 16.128Z" fill="#FC2902"/>
</svg>
