<svg width="239" height="20" viewBox="0 0 239 20" fill="none" xmlns="http://www.w3.org/2000/svg">
<path d="M3.712 9.312H9.104V11.328H3.712V9.312ZM3.904 13.92H10V16H1.328V4.8H9.792V6.88H3.904V13.92ZM14.7355 16.128C13.9995 16.128 13.2902 16.0427 12.6075 15.872C11.9355 15.6907 11.4022 15.4667 11.0075 15.2L11.8395 13.408C12.2342 13.6533 12.6982 13.856 13.2315 14.016C13.7755 14.1653 14.3088 14.24 14.8315 14.24C15.4075 14.24 15.8128 14.1707 16.0475 14.032C16.2928 13.8933 16.4155 13.7013 16.4155 13.456C16.4155 13.2533 16.3195 13.104 16.1275 13.008C15.9462 12.9013 15.7008 12.8213 15.3915 12.768C15.0822 12.7147 14.7408 12.6613 14.3675 12.608C14.0048 12.5547 13.6368 12.4853 13.2635 12.4C12.8902 12.304 12.5488 12.1653 12.2395 11.984C11.9302 11.8027 11.6795 11.5573 11.4875 11.248C11.3062 10.9387 11.2155 10.5387 11.2155 10.048C11.2155 9.504 11.3702 9.024 11.6795 8.608C11.9995 8.192 12.4582 7.86667 13.0555 7.632C13.6528 7.38667 14.3675 7.264 15.1995 7.264C15.7862 7.264 16.3835 7.328 16.9915 7.456C17.5995 7.584 18.1062 7.77067 18.5115 8.016L17.6795 9.792C17.2635 9.54667 16.8422 9.38133 16.4155 9.296C15.9995 9.2 15.5942 9.152 15.1995 9.152C14.6448 9.152 14.2395 9.22667 13.9835 9.376C13.7275 9.52533 13.5995 9.71733 13.5995 9.952C13.5995 10.1653 13.6902 10.3253 13.8715 10.432C14.0635 10.5387 14.3142 10.624 14.6235 10.688C14.9328 10.752 15.2688 10.8107 15.6315 10.864C16.0048 10.9067 16.3782 10.976 16.7515 11.072C17.1248 11.168 17.4608 11.3067 17.7595 11.488C18.0688 11.6587 18.3195 11.8987 18.5115 12.208C18.7035 12.5067 18.7995 12.9013 18.7995 13.392C18.7995 13.9253 18.6395 14.4 18.3195 14.816C17.9995 15.2213 17.5355 15.5413 16.9275 15.776C16.3302 16.0107 15.5995 16.128 14.7355 16.128ZM23.8595 16.128C22.8462 16.128 22.0568 15.872 21.4915 15.36C20.9262 14.8373 20.6435 14.064 20.6435 13.04V5.488H23.1395V13.008C23.1395 13.3707 23.2355 13.6533 23.4275 13.856C23.6195 14.048 23.8808 14.144 24.2115 14.144C24.6062 14.144 24.9422 14.0373 25.2195 13.824L25.8915 15.584C25.6355 15.7653 25.3262 15.904 24.9635 16C24.6115 16.0853 24.2435 16.128 23.8595 16.128ZM19.3155 9.504V7.584H25.2835V9.504H19.3155ZM27.2926 16V7.392H29.6766V9.824L29.3406 9.12C29.5966 8.512 30.0073 8.05333 30.5726 7.744C31.138 7.424 31.826 7.264 32.6366 7.264V9.568C32.53 9.55733 32.434 9.552 32.3486 9.552C32.2633 9.54133 32.1726 9.536 32.0766 9.536C31.394 9.536 30.8393 9.73333 30.4126 10.128C29.9966 10.512 29.7886 11.1147 29.7886 11.936V16H27.2926ZM38.8383 16V14.32L38.6783 13.952V10.944C38.6783 10.4107 38.5129 9.99467 38.1823 9.696C37.8623 9.39733 37.3663 9.248 36.6943 9.248C36.2356 9.248 35.7823 9.32267 35.3343 9.472C34.8969 9.61067 34.5236 9.80267 34.2143 10.048L33.3183 8.304C33.7876 7.97333 34.3529 7.71733 35.0143 7.536C35.6756 7.35467 36.3476 7.264 37.0303 7.264C38.3423 7.264 39.3609 7.57333 40.0863 8.192C40.8116 8.81067 41.1743 9.776 41.1743 11.088V16H38.8383ZM36.2143 16.128C35.5423 16.128 34.9663 16.016 34.4863 15.792C34.0063 15.5573 33.6383 15.2427 33.3823 14.848C33.1263 14.4533 32.9983 14.0107 32.9983 13.52C32.9983 13.008 33.1209 12.56 33.3663 12.176C33.6223 11.792 34.0223 11.4933 34.5663 11.28C35.1103 11.056 35.8196 10.944 36.6943 10.944H38.9823V12.4H36.9663C36.3796 12.4 35.9743 12.496 35.7503 12.688C35.5369 12.88 35.4303 13.12 35.4303 13.408C35.4303 13.728 35.5529 13.984 35.7983 14.176C36.0543 14.3573 36.4009 14.448 36.8383 14.448C37.2543 14.448 37.6276 14.352 37.9583 14.16C38.2889 13.9573 38.5289 13.664 38.6783 13.28L39.0623 14.432C38.8809 14.9867 38.5503 15.408 38.0703 15.696C37.5903 15.984 36.9716 16.128 36.2143 16.128ZM46.9533 16.128C45.9399 16.128 45.1506 15.872 44.5853 15.36C44.0199 14.8373 43.7373 14.064 43.7373 13.04V5.488H46.2333V13.008C46.2333 13.3707 46.3293 13.6533 46.5213 13.856C46.7133 14.048 46.9746 14.144 47.3053 14.144C47.6999 14.144 48.0359 14.0373 48.3133 13.824L48.9853 15.584C48.7293 15.7653 48.4199 15.904 48.0573 16C47.7053 16.0853 47.3373 16.128 46.9533 16.128ZM42.4093 9.504V7.584H48.3773V9.504H42.4093ZM54.3928 16.128C53.4114 16.128 52.5474 15.936 51.8008 15.552C51.0648 15.168 50.4941 14.6453 50.0888 13.984C49.6834 13.312 49.4808 12.5493 49.4808 11.696C49.4808 10.832 49.6781 10.0693 50.0728 9.408C50.4781 8.736 51.0274 8.21333 51.7208 7.84C52.4141 7.456 53.1981 7.264 54.0728 7.264C54.9154 7.264 55.6728 7.44533 56.3448 7.808C57.0274 8.16 57.5661 8.672 57.9608 9.344C58.3554 10.0053 58.5528 10.8 58.5528 11.728C58.5528 11.824 58.5474 11.936 58.5368 12.064C58.5261 12.1813 58.5154 12.2933 58.5048 12.4H51.5128V10.944H57.1927L56.2328 11.376C56.2328 10.928 56.1421 10.5387 55.9608 10.208C55.7794 9.87733 55.5288 9.62133 55.2088 9.44C54.8888 9.248 54.5154 9.152 54.0888 9.152C53.6621 9.152 53.2834 9.248 52.9528 9.44C52.6328 9.62133 52.3821 9.88267 52.2008 10.224C52.0194 10.5547 51.9288 10.9493 51.9288 11.408V11.792C51.9288 12.2613 52.0301 12.6773 52.2328 13.04C52.4461 13.392 52.7394 13.664 53.1128 13.856C53.4968 14.0373 53.9448 14.128 54.4568 14.128C54.9154 14.128 55.3154 14.0587 55.6568 13.92C56.0088 13.7813 56.3288 13.5733 56.6168 13.296L57.9448 14.736C57.5501 15.184 57.0541 15.5307 56.4568 15.776C55.8594 16.0107 55.1714 16.128 54.3928 16.128ZM64.2625 19.232C63.4518 19.232 62.6678 19.1307 61.9105 18.928C61.1638 18.736 60.5398 18.4427 60.0385 18.048L61.0305 16.256C61.3932 16.5547 61.8518 16.7893 62.4065 16.96C62.9718 17.1413 63.5265 17.232 64.0705 17.232C64.9558 17.232 65.5958 17.0347 65.9905 16.64C66.3958 16.2453 66.5985 15.6587 66.5985 14.88V13.584L66.7585 11.424L66.7265 9.248V7.392H69.0945V14.56C69.0945 16.16 68.6785 17.3387 67.8465 18.096C67.0145 18.8533 65.8198 19.232 64.2625 19.232ZM63.8785 15.584C63.0785 15.584 62.3532 15.4133 61.7025 15.072C61.0625 14.72 60.5452 14.2347 60.1505 13.616C59.7665 12.9867 59.5745 12.256 59.5745 11.424C59.5745 10.5813 59.7665 9.85067 60.1505 9.232C60.5452 8.60267 61.0625 8.11733 61.7025 7.776C62.3532 7.43467 63.0785 7.264 63.8785 7.264C64.6038 7.264 65.2438 7.41333 65.7985 7.712C66.3532 8 66.7852 8.45333 67.0945 9.072C67.4038 9.68 67.5585 10.464 67.5585 11.424C67.5585 12.3733 67.4038 13.1573 67.0945 13.776C66.7852 14.384 66.3532 14.8373 65.7985 15.136C65.2438 15.4347 64.6038 15.584 63.8785 15.584ZM64.3745 13.536C64.8118 13.536 65.2012 13.4507 65.5425 13.28C65.8838 13.0987 66.1505 12.848 66.3425 12.528C66.5345 12.208 66.6305 11.84 66.6305 11.424C66.6305 10.9973 66.5345 10.6293 66.3425 10.32C66.1505 10 65.8838 9.75467 65.5425 9.584C65.2012 9.40267 64.8118 9.312 64.3745 9.312C63.9372 9.312 63.5478 9.40267 63.2065 9.584C62.8652 9.75467 62.5932 10 62.3905 10.32C62.1985 10.6293 62.1025 10.9973 62.1025 11.424C62.1025 11.84 62.1985 12.208 62.3905 12.528C62.5932 12.848 62.8652 13.0987 63.2065 13.28C63.5478 13.4507 63.9372 13.536 64.3745 13.536ZM71.4176 16V7.392H73.9136V16H71.4176ZM72.6656 6.192C72.207 6.192 71.8336 6.05867 71.5456 5.792C71.2576 5.52533 71.1136 5.19467 71.1136 4.8C71.1136 4.40533 71.2576 4.07467 71.5456 3.808C71.8336 3.54133 72.207 3.408 72.6656 3.408C73.1243 3.408 73.4976 3.536 73.7856 3.792C74.0736 4.03733 74.2176 4.35733 74.2176 4.752C74.2176 5.168 74.0736 5.51467 73.7856 5.792C73.5083 6.05867 73.135 6.192 72.6656 6.192ZM81.5101 16V14.32L81.3501 13.952V10.944C81.3501 10.4107 81.1848 9.99467 80.8541 9.696C80.5341 9.39733 80.0381 9.248 79.3661 9.248C78.9075 9.248 78.4541 9.32267 78.0061 9.472C77.5688 9.61067 77.1955 9.80267 76.8861 10.048L75.9901 8.304C76.4595 7.97333 77.0248 7.71733 77.6861 7.536C78.3475 7.35467 79.0195 7.264 79.7021 7.264C81.0141 7.264 82.0328 7.57333 82.7581 8.192C83.4835 8.81067 83.8461 9.776 83.8461 11.088V16H81.5101ZM78.8861 16.128C78.2141 16.128 77.6381 16.016 77.1581 15.792C76.6781 15.5573 76.3101 15.2427 76.0541 14.848C75.7981 14.4533 75.6701 14.0107 75.6701 13.52C75.6701 13.008 75.7928 12.56 76.0381 12.176C76.2941 11.792 76.6941 11.4933 77.2381 11.28C77.7821 11.056 78.4915 10.944 79.3661 10.944H81.6541V12.4H79.6381C79.0515 12.4 78.6461 12.496 78.4221 12.688C78.2088 12.88 78.1021 13.12 78.1021 13.408C78.1021 13.728 78.2248 13.984 78.4701 14.176C78.7261 14.3573 79.0728 14.448 79.5101 14.448C79.9261 14.448 80.2995 14.352 80.6301 14.16C80.9608 13.9573 81.2008 13.664 81.3501 13.28L81.7341 14.432C81.5528 14.9867 81.2221 15.408 80.7421 15.696C80.2621 15.984 79.6435 16.128 78.8861 16.128ZM89.0011 16.128C88.2651 16.128 87.5558 16.0427 86.8731 15.872C86.2011 15.6907 85.6678 15.4667 85.2731 15.2L86.1051 13.408C86.4998 13.6533 86.9638 13.856 87.4971 14.016C88.0411 14.1653 88.5745 14.24 89.0971 14.24C89.6731 14.24 90.0785 14.1707 90.3131 14.032C90.5585 13.8933 90.6811 13.7013 90.6811 13.456C90.6811 13.2533 90.5851 13.104 90.3931 13.008C90.2118 12.9013 89.9665 12.8213 89.6571 12.768C89.3478 12.7147 89.0065 12.6613 88.6331 12.608C88.2705 12.5547 87.9025 12.4853 87.5291 12.4C87.1558 12.304 86.8145 12.1653 86.5051 11.984C86.1958 11.8027 85.9451 11.5573 85.7531 11.248C85.5718 10.9387 85.4811 10.5387 85.4811 10.048C85.4811 9.504 85.6358 9.024 85.9451 8.608C86.2651 8.192 86.7238 7.86667 87.3211 7.632C87.9185 7.38667 88.6331 7.264 89.4651 7.264C90.0518 7.264 90.6491 7.328 91.2571 7.456C91.8651 7.584 92.3718 7.77067 92.7771 8.016L91.9451 9.792C91.5291 9.54667 91.1078 9.38133 90.6811 9.296C90.2651 9.2 89.8598 9.152 89.4651 9.152C88.9105 9.152 88.5051 9.22667 88.2491 9.376C87.9931 9.52533 87.8651 9.71733 87.8651 9.952C87.8651 10.1653 87.9558 10.3253 88.1371 10.432C88.3291 10.5387 88.5798 10.624 88.8891 10.688C89.1985 10.752 89.5345 10.8107 89.8971 10.864C90.2705 10.9067 90.6438 10.976 91.0171 11.072C91.3905 11.168 91.7265 11.3067 92.0251 11.488C92.3345 11.6587 92.5851 11.8987 92.7771 12.208C92.9691 12.5067 93.0651 12.9013 93.0651 13.392C93.0651 13.9253 92.9051 14.4 92.5851 14.816C92.2651 15.2213 91.8011 15.5413 91.1931 15.776C90.5958 16.0107 89.8651 16.128 89.0011 16.128ZM102.832 16.128C102.022 16.128 101.291 15.9467 100.64 15.584C99.9897 15.2107 99.4724 14.6933 99.0884 14.032C98.715 13.3707 98.5284 12.592 98.5284 11.696C98.5284 10.7893 98.715 10.0053 99.0884 9.344C99.4724 8.68267 99.9897 8.17067 100.64 7.808C101.291 7.44533 102.022 7.264 102.832 7.264C103.558 7.264 104.192 7.424 104.736 7.744C105.28 8.064 105.702 8.54933 106 9.2C106.299 9.85067 106.448 10.6827 106.448 11.696C106.448 12.6987 106.304 13.5307 106.016 14.192C105.728 14.8427 105.312 15.328 104.768 15.648C104.235 15.968 103.59 16.128 102.832 16.128ZM103.264 14.08C103.67 14.08 104.038 13.984 104.368 13.792C104.699 13.6 104.96 13.328 105.152 12.976C105.355 12.6133 105.456 12.1867 105.456 11.696C105.456 11.1947 105.355 10.768 105.152 10.416C104.96 10.064 104.699 9.792 104.368 9.6C104.038 9.408 103.67 9.312 103.264 9.312C102.848 9.312 102.475 9.408 102.144 9.6C101.814 9.792 101.547 10.064 101.344 10.416C101.152 10.768 101.056 11.1947 101.056 11.696C101.056 12.1867 101.152 12.6133 101.344 12.976C101.547 13.328 101.814 13.6 102.144 13.792C102.475 13.984 102.848 14.08 103.264 14.08ZM105.52 16V14.24L105.568 11.68L105.408 9.136V4.128H107.904V16H105.52ZM114.487 16.128C113.505 16.128 112.641 15.936 111.895 15.552C111.159 15.168 110.588 14.6453 110.183 13.984C109.777 13.312 109.575 12.5493 109.575 11.696C109.575 10.832 109.772 10.0693 110.167 9.408C110.572 8.736 111.121 8.21333 111.815 7.84C112.508 7.456 113.292 7.264 114.167 7.264C115.009 7.264 115.767 7.44533 116.439 7.808C117.121 8.16 117.66 8.672 118.055 9.344C118.449 10.0053 118.647 10.8 118.647 11.728C118.647 11.824 118.641 11.936 118.631 12.064C118.62 12.1813 118.609 12.2933 118.599 12.4H111.607V10.944H117.286L116.327 11.376C116.327 10.928 116.236 10.5387 116.055 10.208C115.873 9.87733 115.623 9.62133 115.303 9.44C114.983 9.248 114.609 9.152 114.183 9.152C113.756 9.152 113.377 9.248 113.047 9.44C112.727 9.62133 112.476 9.88267 112.295 10.224C112.113 10.5547 112.023 10.9493 112.023 11.408V11.792C112.023 12.2613 112.124 12.6773 112.327 13.04C112.54 13.392 112.833 13.664 113.207 13.856C113.591 14.0373 114.039 14.128 114.551 14.128C115.009 14.128 115.409 14.0587 115.751 13.92C116.103 13.7813 116.423 13.5733 116.711 13.296L118.039 14.736C117.644 15.184 117.148 15.5307 116.551 15.776C115.953 16.0107 115.265 16.128 114.487 16.128ZM125.016 16V4.8H130.104C131.32 4.8 132.392 5.03467 133.32 5.504C134.248 5.96267 134.973 6.608 135.496 7.44C136.018 8.272 136.28 9.25867 136.28 10.4C136.28 11.5307 136.018 12.5173 135.496 13.36C134.973 14.192 134.248 14.8427 133.32 15.312C132.392 15.7707 131.32 16 130.104 16H125.016ZM127.608 13.872H129.976C130.722 13.872 131.368 13.7333 131.911 13.456C132.466 13.168 132.893 12.7627 133.192 12.24C133.501 11.7173 133.656 11.104 133.656 10.4C133.656 9.68533 133.501 9.072 133.192 8.56C132.893 8.03733 132.466 7.63733 131.911 7.36C131.368 7.072 130.722 6.928 129.976 6.928H127.608V13.872ZM138.058 16V7.392H140.554V16H138.058ZM139.306 6.192C138.848 6.192 138.474 6.05867 138.186 5.792C137.898 5.52533 137.754 5.19467 137.754 4.8C137.754 4.40533 137.898 4.07467 138.186 3.808C138.474 3.54133 138.848 3.408 139.306 3.408C139.765 3.408 140.138 3.536 140.426 3.792C140.714 4.03733 140.858 4.35733 140.858 4.752C140.858 5.168 140.714 5.51467 140.426 5.792C140.149 6.05867 139.776 6.192 139.306 6.192ZM146.919 19.232C146.108 19.232 145.324 19.1307 144.567 18.928C143.82 18.736 143.196 18.4427 142.695 18.048L143.687 16.256C144.049 16.5547 144.508 16.7893 145.063 16.96C145.628 17.1413 146.183 17.232 146.727 17.232C147.612 17.232 148.252 17.0347 148.647 16.64C149.052 16.2453 149.255 15.6587 149.255 14.88V13.584L149.415 11.424L149.383 9.248V7.392H151.751V14.56C151.751 16.16 151.335 17.3387 150.503 18.096C149.671 18.8533 148.476 19.232 146.919 19.232ZM146.535 15.584C145.735 15.584 145.009 15.4133 144.359 15.072C143.719 14.72 143.201 14.2347 142.807 13.616C142.423 12.9867 142.231 12.256 142.231 11.424C142.231 10.5813 142.423 9.85067 142.807 9.232C143.201 8.60267 143.719 8.11733 144.359 7.776C145.009 7.43467 145.735 7.264 146.535 7.264C147.26 7.264 147.9 7.41333 148.455 7.712C149.009 8 149.441 8.45333 149.751 9.072C150.06 9.68 150.215 10.464 150.215 11.424C150.215 12.3733 150.06 13.1573 149.751 13.776C149.441 14.384 149.009 14.8373 148.455 15.136C147.9 15.4347 147.26 15.584 146.535 15.584ZM147.031 13.536C147.468 13.536 147.857 13.4507 148.199 13.28C148.54 13.0987 148.807 12.848 148.999 12.528C149.191 12.208 149.287 11.84 149.287 11.424C149.287 10.9973 149.191 10.6293 148.999 10.32C148.807 10 148.54 9.75467 148.199 9.584C147.857 9.40267 147.468 9.312 147.031 9.312C146.593 9.312 146.204 9.40267 145.863 9.584C145.521 9.75467 145.249 10 145.047 10.32C144.855 10.6293 144.759 10.9973 144.759 11.424C144.759 11.84 144.855 12.208 145.047 12.528C145.249 12.848 145.521 13.0987 145.863 13.28C146.204 13.4507 146.593 13.536 147.031 13.536ZM154.074 16V7.392H156.57V16H154.074ZM155.322 6.192C154.863 6.192 154.49 6.05867 154.202 5.792C153.914 5.52533 153.77 5.19467 153.77 4.8C153.77 4.40533 153.914 4.07467 154.202 3.808C154.49 3.54133 154.863 3.408 155.322 3.408C155.781 3.408 156.154 3.536 156.442 3.792C156.73 4.03733 156.874 4.35733 156.874 4.752C156.874 5.168 156.73 5.51467 156.442 5.792C156.165 6.05867 155.791 6.192 155.322 6.192ZM162.406 16.128C161.393 16.128 160.604 15.872 160.038 15.36C159.473 14.8373 159.19 14.064 159.19 13.04V5.488H161.686V13.008C161.686 13.3707 161.782 13.6533 161.974 13.856C162.166 14.048 162.428 14.144 162.758 14.144C163.153 14.144 163.489 14.0373 163.766 13.824L164.438 15.584C164.182 15.7653 163.873 15.904 163.51 16C163.158 16.0853 162.79 16.128 162.406 16.128ZM157.862 9.504V7.584H163.83V9.504H157.862ZM171.12 16V14.32L170.96 13.952V10.944C170.96 10.4107 170.794 9.99467 170.464 9.696C170.144 9.39733 169.648 9.248 168.976 9.248C168.517 9.248 168.064 9.32267 167.616 9.472C167.178 9.61067 166.805 9.80267 166.496 10.048L165.6 8.304C166.069 7.97333 166.634 7.71733 167.296 7.536C167.957 7.35467 168.629 7.264 169.312 7.264C170.624 7.264 171.642 7.57333 172.368 8.192C173.093 8.81067 173.456 9.776 173.456 11.088V16H171.12ZM168.496 16.128C167.824 16.128 167.248 16.016 166.768 15.792C166.288 15.5573 165.92 15.2427 165.664 14.848C165.408 14.4533 165.28 14.0107 165.28 13.52C165.28 13.008 165.402 12.56 165.648 12.176C165.904 11.792 166.304 11.4933 166.848 11.28C167.392 11.056 168.101 10.944 168.976 10.944H171.264V12.4H169.248C168.661 12.4 168.256 12.496 168.032 12.688C167.818 12.88 167.712 13.12 167.712 13.408C167.712 13.728 167.834 13.984 168.08 14.176C168.336 14.3573 168.682 14.448 169.12 14.448C169.536 14.448 169.909 14.352 170.24 14.16C170.57 13.9573 170.81 13.664 170.96 13.28L171.344 14.432C171.162 14.9867 170.832 15.408 170.352 15.696C169.872 15.984 169.253 16.128 168.496 16.128ZM175.715 16V4.128H178.211V16H175.715ZM180.527 16V7.392H183.023V16H180.527ZM181.775 6.192C181.316 6.192 180.943 6.05867 180.655 5.792C180.367 5.52533 180.223 5.19467 180.223 4.8C180.223 4.40533 180.367 4.07467 180.655 3.808C180.943 3.54133 181.316 3.408 181.775 3.408C182.234 3.408 182.607 3.536 182.895 3.792C183.183 4.03733 183.327 4.35733 183.327 4.752C183.327 5.168 183.183 5.51467 182.895 5.792C182.618 6.05867 182.244 6.192 181.775 6.192ZM184.748 16V14.496L189.836 8.48L190.268 9.312H184.86V7.392H192.284V8.896L187.196 14.912L186.748 14.08H192.428V16H184.748ZM199.307 16V14.32L199.147 13.952V10.944C199.147 10.4107 198.982 9.99467 198.651 9.696C198.331 9.39733 197.835 9.248 197.163 9.248C196.704 9.248 196.251 9.32267 195.803 9.472C195.366 9.61067 194.992 9.80267 194.683 10.048L193.787 8.304C194.256 7.97333 194.822 7.71733 195.483 7.536C196.144 7.35467 196.816 7.264 197.499 7.264C198.811 7.264 199.83 7.57333 200.555 8.192C201.28 8.81067 201.643 9.776 201.643 11.088V16H199.307ZM196.683 16.128C196.011 16.128 195.435 16.016 194.955 15.792C194.475 15.5573 194.107 15.2427 193.851 14.848C193.595 14.4533 193.467 14.0107 193.467 13.52C193.467 13.008 193.59 12.56 193.835 12.176C194.091 11.792 194.491 11.4933 195.035 11.28C195.579 11.056 196.288 10.944 197.163 10.944H199.451V12.4H197.435C196.848 12.4 196.443 12.496 196.219 12.688C196.006 12.88 195.899 13.12 195.899 13.408C195.899 13.728 196.022 13.984 196.267 14.176C196.523 14.3573 196.87 14.448 197.307 14.448C197.723 14.448 198.096 14.352 198.427 14.16C198.758 13.9573 198.998 13.664 199.147 13.28L199.531 14.432C199.35 14.9867 199.019 15.408 198.539 15.696C198.059 15.984 197.44 16.128 196.683 16.128ZM208.125 16.128C207.197 16.128 206.37 15.9413 205.645 15.568C204.919 15.184 204.349 14.656 203.933 13.984C203.527 13.312 203.325 12.5493 203.325 11.696C203.325 10.832 203.527 10.0693 203.933 9.408C204.349 8.736 204.919 8.21333 205.645 7.84C206.37 7.456 207.197 7.264 208.125 7.264C209.031 7.264 209.821 7.456 210.493 7.84C211.165 8.21333 211.661 8.752 211.981 9.456L210.045 10.496C209.821 10.0907 209.538 9.792 209.197 9.6C208.866 9.408 208.503 9.312 208.109 9.312C207.682 9.312 207.298 9.408 206.957 9.6C206.615 9.792 206.343 10.064 206.141 10.416C205.949 10.768 205.853 11.1947 205.853 11.696C205.853 12.1973 205.949 12.624 206.141 12.976C206.343 13.328 206.615 13.6 206.957 13.792C207.298 13.984 207.682 14.08 208.109 14.08C208.503 14.08 208.866 13.9893 209.197 13.808C209.538 13.616 209.821 13.312 210.045 12.896L211.981 13.952C211.661 14.6453 211.165 15.184 210.493 15.568C209.821 15.9413 209.031 16.128 208.125 16.128ZM213.371 16V7.392H215.867V16H213.371ZM214.619 6.192C214.16 6.192 213.787 6.05867 213.499 5.792C213.211 5.52533 213.067 5.19467 213.067 4.8C213.067 4.40533 213.211 4.07467 213.499 3.808C213.787 3.54133 214.16 3.408 214.619 3.408C215.077 3.408 215.451 3.536 215.739 3.792C216.027 4.03733 216.171 4.35733 216.171 4.752C216.171 5.168 216.027 5.51467 215.739 5.792C215.461 6.05867 215.088 6.192 214.619 6.192ZM222.279 16.128C221.362 16.128 220.546 15.936 219.831 15.552C219.127 15.168 218.567 14.6453 218.151 13.984C217.746 13.312 217.543 12.5493 217.543 11.696C217.543 10.832 217.746 10.0693 218.151 9.408C218.567 8.736 219.127 8.21333 219.831 7.84C220.546 7.456 221.362 7.264 222.279 7.264C223.186 7.264 223.997 7.456 224.711 7.84C225.426 8.21333 225.986 8.73067 226.391 9.392C226.797 10.0533 226.999 10.8213 226.999 11.696C226.999 12.5493 226.797 13.312 226.391 13.984C225.986 14.6453 225.426 15.168 224.711 15.552C223.997 15.936 223.186 16.128 222.279 16.128ZM222.279 14.08C222.695 14.08 223.069 13.984 223.399 13.792C223.73 13.6 223.991 13.328 224.183 12.976C224.375 12.6133 224.471 12.1867 224.471 11.696C224.471 11.1947 224.375 10.768 224.183 10.416C223.991 10.064 223.73 9.792 223.399 9.6C223.069 9.408 222.695 9.312 222.279 9.312C221.863 9.312 221.49 9.408 221.159 9.6C220.829 9.792 220.562 10.064 220.359 10.416C220.167 10.768 220.071 11.1947 220.071 11.696C220.071 12.1867 220.167 12.6133 220.359 12.976C220.562 13.328 220.829 13.6 221.159 13.792C221.49 13.984 221.863 14.08 222.279 14.08ZM220.791 6.288L222.951 3.984H225.639L222.743 6.288H220.791ZM233.9 7.264C234.582 7.264 235.19 7.40267 235.724 7.68C236.268 7.94667 236.694 8.36267 237.004 8.928C237.313 9.48267 237.468 10.1973 237.468 11.072V16H234.972V11.456C234.972 10.7627 234.817 10.2507 234.508 9.92C234.209 9.58933 233.782 9.424 233.228 9.424C232.833 9.424 232.476 9.50933 232.156 9.68C231.846 9.84 231.601 10.0907 231.42 10.432C231.249 10.7733 231.164 11.2107 231.164 11.744V16H228.668V7.392H231.052V9.776L230.604 9.056C230.913 8.48 231.356 8.03733 231.932 7.728C232.508 7.41867 233.164 7.264 233.9 7.264Z" fill="#1E1E1E"/>
</svg>
