<svg width="202" height="20" viewBox="0 0 202 20" fill="none" xmlns="http://www.w3.org/2000/svg">
<path d="M1.328 16V4.8H3.92V16H1.328ZM11.634 7.264C12.3167 7.264 12.9247 7.40267 13.458 7.68C14.002 7.94667 14.4287 8.36267 14.738 8.928C15.0473 9.48267 15.202 10.1973 15.202 11.072V16H12.706V11.456C12.706 10.7627 12.5513 10.2507 12.242 9.92C11.9433 9.58933 11.5167 9.424 10.962 9.424C10.5673 9.424 10.21 9.50933 9.89 9.68C9.58067 9.84 9.33533 10.0907 9.154 10.432C8.98333 10.7733 8.898 11.2107 8.898 11.744V16H6.402V7.392H8.786V9.776L8.338 9.056C8.64733 8.48 9.09 8.03733 9.666 7.728C10.242 7.41867 10.898 7.264 11.634 7.264ZM20.9845 16.128C19.9712 16.128 19.1818 15.872 18.6165 15.36C18.0512 14.8373 17.7685 14.064 17.7685 13.04V5.488H20.2645V13.008C20.2645 13.3707 20.3605 13.6533 20.5525 13.856C20.7445 14.048 21.0058 14.144 21.3365 14.144C21.7312 14.144 22.0672 14.0373 22.3445 13.824L23.0165 15.584C22.7605 15.7653 22.4512 15.904 22.0885 16C21.7365 16.0853 21.3685 16.128 20.9845 16.128ZM16.4405 9.504V7.584H22.4085V9.504H16.4405ZM28.424 16.128C27.4427 16.128 26.5787 15.936 25.832 15.552C25.096 15.168 24.5253 14.6453 24.12 13.984C23.7147 13.312 23.512 12.5493 23.512 11.696C23.512 10.832 23.7093 10.0693 24.104 9.408C24.5093 8.736 25.0587 8.21333 25.752 7.84C26.4453 7.456 27.2293 7.264 28.104 7.264C28.9467 7.264 29.704 7.44533 30.376 7.808C31.0587 8.16 31.5973 8.672 31.992 9.344C32.3867 10.0053 32.584 10.8 32.584 11.728C32.584 11.824 32.5787 11.936 32.568 12.064C32.5573 12.1813 32.5467 12.2933 32.536 12.4H25.544V10.944H31.224L30.264 11.376C30.264 10.928 30.1733 10.5387 29.992 10.208C29.8107 9.87733 29.56 9.62133 29.24 9.44C28.92 9.248 28.5467 9.152 28.12 9.152C27.6933 9.152 27.3147 9.248 26.984 9.44C26.664 9.62133 26.4133 9.88267 26.232 10.224C26.0507 10.5547 25.96 10.9493 25.96 11.408V11.792C25.96 12.2613 26.0613 12.6773 26.264 13.04C26.4773 13.392 26.7707 13.664 27.144 13.856C27.528 14.0373 27.976 14.128 28.488 14.128C28.9467 14.128 29.3467 14.0587 29.688 13.92C30.04 13.7813 30.36 13.5733 30.648 13.296L31.976 14.736C31.5813 15.184 31.0853 15.5307 30.488 15.776C29.8907 16.0107 29.2027 16.128 28.424 16.128ZM38.2938 19.232C37.4831 19.232 36.6991 19.1307 35.9418 18.928C35.1951 18.736 34.5711 18.4427 34.0698 18.048L35.0618 16.256C35.4244 16.5547 35.8831 16.7893 36.4378 16.96C37.0031 17.1413 37.5578 17.232 38.1018 17.232C38.9871 17.232 39.6271 17.0347 40.0218 16.64C40.4271 16.2453 40.6298 15.6587 40.6298 14.88V13.584L40.7898 11.424L40.7578 9.248V7.392H43.1258V14.56C43.1258 16.16 42.7098 17.3387 41.8778 18.096C41.0458 18.8533 39.8511 19.232 38.2938 19.232ZM37.9098 15.584C37.1098 15.584 36.3844 15.4133 35.7338 15.072C35.0938 14.72 34.5764 14.2347 34.1818 13.616C33.7978 12.9867 33.6058 12.256 33.6058 11.424C33.6058 10.5813 33.7978 9.85067 34.1818 9.232C34.5764 8.60267 35.0938 8.11733 35.7338 7.776C36.3844 7.43467 37.1098 7.264 37.9098 7.264C38.6351 7.264 39.2751 7.41333 39.8298 7.712C40.3844 8 40.8164 8.45333 41.1258 9.072C41.4351 9.68 41.5898 10.464 41.5898 11.424C41.5898 12.3733 41.4351 13.1573 41.1258 13.776C40.8164 14.384 40.3844 14.8373 39.8298 15.136C39.2751 15.4347 38.6351 15.584 37.9098 15.584ZM38.4058 13.536C38.8431 13.536 39.2324 13.4507 39.5738 13.28C39.9151 13.0987 40.1818 12.848 40.3738 12.528C40.5658 12.208 40.6618 11.84 40.6618 11.424C40.6618 10.9973 40.5658 10.6293 40.3738 10.32C40.1818 10 39.9151 9.75467 39.5738 9.584C39.2324 9.40267 38.8431 9.312 38.4058 9.312C37.9684 9.312 37.5791 9.40267 37.2378 9.584C36.8964 9.75467 36.6244 10 36.4218 10.32C36.2298 10.6293 36.1338 10.9973 36.1338 11.424C36.1338 11.84 36.2298 12.208 36.4218 12.528C36.6244 12.848 36.8964 13.0987 37.2378 13.28C37.5791 13.4507 37.9684 13.536 38.4058 13.536ZM45.4489 16V7.392H47.8329V9.824L47.4969 9.12C47.7529 8.512 48.1635 8.05333 48.7289 7.744C49.2942 7.424 49.9822 7.264 50.7929 7.264V9.568C50.6862 9.55733 50.5902 9.552 50.5049 9.552C50.4195 9.54133 50.3289 9.536 50.2329 9.536C49.5502 9.536 48.9955 9.73333 48.5689 10.128C48.1529 10.512 47.9449 11.1147 47.9449 11.936V16H45.4489ZM56.9945 16V14.32L56.8345 13.952V10.944C56.8345 10.4107 56.6692 9.99467 56.3385 9.696C56.0185 9.39733 55.5225 9.248 54.8505 9.248C54.3918 9.248 53.9385 9.32267 53.4905 9.472C53.0532 9.61067 52.6798 9.80267 52.3705 10.048L51.4745 8.304C51.9438 7.97333 52.5092 7.71733 53.1705 7.536C53.8318 7.35467 54.5038 7.264 55.1865 7.264C56.4985 7.264 57.5172 7.57333 58.2425 8.192C58.9678 8.81067 59.3305 9.776 59.3305 11.088V16H56.9945ZM54.3705 16.128C53.6985 16.128 53.1225 16.016 52.6425 15.792C52.1625 15.5573 51.7945 15.2427 51.5385 14.848C51.2825 14.4533 51.1545 14.0107 51.1545 13.52C51.1545 13.008 51.2772 12.56 51.5225 12.176C51.7785 11.792 52.1785 11.4933 52.7225 11.28C53.2665 11.056 53.9758 10.944 54.8505 10.944H57.1385V12.4H55.1225C54.5358 12.4 54.1305 12.496 53.9065 12.688C53.6932 12.88 53.5865 13.12 53.5865 13.408C53.5865 13.728 53.7092 13.984 53.9545 14.176C54.2105 14.3573 54.5572 14.448 54.9945 14.448C55.4105 14.448 55.7838 14.352 56.1145 14.16C56.4452 13.9573 56.6852 13.664 56.8345 13.28L57.2185 14.432C57.0372 14.9867 56.7065 15.408 56.2265 15.696C55.7465 15.984 55.1278 16.128 54.3705 16.128ZM65.812 16.128C64.884 16.128 64.0573 15.9413 63.332 15.568C62.6067 15.184 62.036 14.656 61.62 13.984C61.2147 13.312 61.012 12.5493 61.012 11.696C61.012 10.832 61.2147 10.0693 61.62 9.408C62.036 8.736 62.6067 8.21333 63.332 7.84C64.0573 7.456 64.884 7.264 65.812 7.264C66.7187 7.264 67.508 7.456 68.18 7.84C68.852 8.21333 69.348 8.752 69.668 9.456L67.732 10.496C67.508 10.0907 67.2253 9.792 66.884 9.6C66.5533 9.408 66.1907 9.312 65.796 9.312C65.3693 9.312 64.9853 9.408 64.644 9.6C64.3027 9.792 64.0307 10.064 63.828 10.416C63.636 10.768 63.54 11.1947 63.54 11.696C63.54 12.1973 63.636 12.624 63.828 12.976C64.0307 13.328 64.3027 13.6 64.644 13.792C64.9853 13.984 65.3693 14.08 65.796 14.08C66.1907 14.08 66.5533 13.9893 66.884 13.808C67.2253 13.616 67.508 13.312 67.732 12.896L69.668 13.952C69.348 14.6453 68.852 15.184 68.18 15.568C67.508 15.9413 66.7187 16.128 65.812 16.128ZM71.0426 16V7.392H73.5386V16H71.0426ZM72.2906 6.192C71.832 6.192 71.4586 6.05867 71.1706 5.792C70.8826 5.52533 70.7386 5.19467 70.7386 4.8C70.7386 4.40533 70.8826 4.07467 71.1706 3.808C71.4586 3.54133 71.832 3.408 72.2906 3.408C72.7493 3.408 73.1226 3.536 73.4106 3.792C73.6986 4.03733 73.8426 4.35733 73.8426 4.752C73.8426 5.168 73.6986 5.51467 73.4106 5.792C73.1333 6.05867 72.76 6.192 72.2906 6.192ZM79.9511 16.128C79.0338 16.128 78.2178 15.936 77.5031 15.552C76.7991 15.168 76.2391 14.6453 75.8231 13.984C75.4178 13.312 75.2151 12.5493 75.2151 11.696C75.2151 10.832 75.4178 10.0693 75.8231 9.408C76.2391 8.736 76.7991 8.21333 77.5031 7.84C78.2178 7.456 79.0338 7.264 79.9511 7.264C80.8578 7.264 81.6685 7.456 82.3831 7.84C83.0978 8.21333 83.6578 8.73067 84.0631 9.392C84.4685 10.0533 84.6711 10.8213 84.6711 11.696C84.6711 12.5493 84.4685 13.312 84.0631 13.984C83.6578 14.6453 83.0978 15.168 82.3831 15.552C81.6685 15.936 80.8578 16.128 79.9511 16.128ZM79.9511 14.08C80.3671 14.08 80.7405 13.984 81.0711 13.792C81.4018 13.6 81.6631 13.328 81.8551 12.976C82.0471 12.6133 82.1431 12.1867 82.1431 11.696C82.1431 11.1947 82.0471 10.768 81.8551 10.416C81.6631 10.064 81.4018 9.792 81.0711 9.6C80.7405 9.408 80.3671 9.312 79.9511 9.312C79.5351 9.312 79.1618 9.408 78.8311 9.6C78.5005 9.792 78.2338 10.064 78.0311 10.416C77.8391 10.768 77.7431 11.1947 77.7431 11.696C77.7431 12.1867 77.8391 12.6133 78.0311 12.976C78.2338 13.328 78.5005 13.6 78.8311 13.792C79.1618 13.984 79.5351 14.08 79.9511 14.08ZM78.4631 6.288L80.6231 3.984H83.3111L80.4151 6.288H78.4631ZM91.5715 7.264C92.2542 7.264 92.8622 7.40267 93.3955 7.68C93.9395 7.94667 94.3662 8.36267 94.6755 8.928C94.9848 9.48267 95.1395 10.1973 95.1395 11.072V16H92.6435V11.456C92.6435 10.7627 92.4888 10.2507 92.1795 9.92C91.8808 9.58933 91.4542 9.424 90.8995 9.424C90.5048 9.424 90.1475 9.50933 89.8275 9.68C89.5182 9.84 89.2728 10.0907 89.0915 10.432C88.9208 10.7733 88.8355 11.2107 88.8355 11.744V16H86.3395V7.392H88.7235V9.776L88.2755 9.056C88.5848 8.48 89.0275 8.03733 89.6035 7.728C90.1795 7.41867 90.8355 7.264 91.5715 7.264ZM104.429 16V6.912H100.845V4.8H110.605V6.912H107.021V16H104.429ZM115.221 16.128C114.24 16.128 113.376 15.936 112.629 15.552C111.893 15.168 111.322 14.6453 110.917 13.984C110.512 13.312 110.309 12.5493 110.309 11.696C110.309 10.832 110.506 10.0693 110.901 9.408C111.306 8.736 111.856 8.21333 112.549 7.84C113.242 7.456 114.026 7.264 114.901 7.264C115.744 7.264 116.501 7.44533 117.173 7.808C117.856 8.16 118.394 8.672 118.789 9.344C119.184 10.0053 119.381 10.8 119.381 11.728C119.381 11.824 119.376 11.936 119.365 12.064C119.354 12.1813 119.344 12.2933 119.333 12.4H112.341V10.944H118.021L117.061 11.376C117.061 10.928 116.97 10.5387 116.789 10.208C116.608 9.87733 116.357 9.62133 116.037 9.44C115.717 9.248 115.344 9.152 114.917 9.152C114.49 9.152 114.112 9.248 113.781 9.44C113.461 9.62133 113.21 9.88267 113.029 10.224C112.848 10.5547 112.757 10.9493 112.757 11.408V11.792C112.757 12.2613 112.858 12.6773 113.061 13.04C113.274 13.392 113.568 13.664 113.941 13.856C114.325 14.0373 114.773 14.128 115.285 14.128C115.744 14.128 116.144 14.0587 116.485 13.92C116.837 13.7813 117.157 13.5733 117.445 13.296L118.773 14.736C118.378 15.184 117.882 15.5307 117.285 15.776C116.688 16.0107 116 16.128 115.221 16.128ZM125.203 16.128C124.275 16.128 123.448 15.9413 122.723 15.568C121.997 15.184 121.427 14.656 121.011 13.984C120.605 13.312 120.403 12.5493 120.403 11.696C120.403 10.832 120.605 10.0693 121.011 9.408C121.427 8.736 121.997 8.21333 122.723 7.84C123.448 7.456 124.275 7.264 125.203 7.264C126.109 7.264 126.899 7.456 127.571 7.84C128.243 8.21333 128.739 8.752 129.059 9.456L127.123 10.496C126.899 10.0907 126.616 9.792 126.275 9.6C125.944 9.408 125.581 9.312 125.187 9.312C124.76 9.312 124.376 9.408 124.035 9.6C123.693 9.792 123.421 10.064 123.219 10.416C123.027 10.768 122.931 11.1947 122.931 11.696C122.931 12.1973 123.027 12.624 123.219 12.976C123.421 13.328 123.693 13.6 124.035 13.792C124.376 13.984 124.76 14.08 125.187 14.08C125.581 14.08 125.944 13.9893 126.275 13.808C126.616 13.616 126.899 13.312 127.123 12.896L129.059 13.952C128.739 14.6453 128.243 15.184 127.571 15.568C126.899 15.9413 126.109 16.128 125.203 16.128ZM135.728 7.264C136.41 7.264 137.018 7.40267 137.552 7.68C138.096 7.94667 138.522 8.36267 138.832 8.928C139.141 9.48267 139.296 10.1973 139.296 11.072V16H136.8V11.456C136.8 10.7627 136.645 10.2507 136.336 9.92C136.037 9.58933 135.61 9.424 135.056 9.424C134.661 9.424 134.304 9.50933 133.984 9.68C133.674 9.84 133.429 10.0907 133.248 10.432C133.077 10.7733 132.992 11.2107 132.992 11.744V16H130.496V7.392H132.88V9.776L132.432 9.056C132.741 8.48 133.184 8.03733 133.76 7.728C134.336 7.41867 134.992 7.264 135.728 7.264ZM145.717 16.128C144.799 16.128 143.983 15.936 143.269 15.552C142.565 15.168 142.005 14.6453 141.589 13.984C141.183 13.312 140.981 12.5493 140.981 11.696C140.981 10.832 141.183 10.0693 141.589 9.408C142.005 8.736 142.565 8.21333 143.269 7.84C143.983 7.456 144.799 7.264 145.717 7.264C146.623 7.264 147.434 7.456 148.149 7.84C148.863 8.21333 149.423 8.73067 149.829 9.392C150.234 10.0533 150.437 10.8213 150.437 11.696C150.437 12.5493 150.234 13.312 149.829 13.984C149.423 14.6453 148.863 15.168 148.149 15.552C147.434 15.936 146.623 16.128 145.717 16.128ZM145.717 14.08C146.133 14.08 146.506 13.984 146.837 13.792C147.167 13.6 147.429 13.328 147.621 12.976C147.813 12.6133 147.909 12.1867 147.909 11.696C147.909 11.1947 147.813 10.768 147.621 10.416C147.429 10.064 147.167 9.792 146.837 9.6C146.506 9.408 146.133 9.312 145.717 9.312C145.301 9.312 144.927 9.408 144.597 9.6C144.266 9.792 143.999 10.064 143.797 10.416C143.605 10.768 143.509 11.1947 143.509 11.696C143.509 12.1867 143.605 12.6133 143.797 12.976C143.999 13.328 144.266 13.6 144.597 13.792C144.927 13.984 145.301 14.08 145.717 14.08ZM152.105 16V4.128H154.601V16H152.105ZM161.014 16.128C160.096 16.128 159.28 15.936 158.566 15.552C157.862 15.168 157.302 14.6453 156.886 13.984C156.48 13.312 156.278 12.5493 156.278 11.696C156.278 10.832 156.48 10.0693 156.886 9.408C157.302 8.736 157.862 8.21333 158.566 7.84C159.28 7.456 160.096 7.264 161.014 7.264C161.92 7.264 162.731 7.456 163.446 7.84C164.16 8.21333 164.72 8.73067 165.126 9.392C165.531 10.0533 165.734 10.8213 165.734 11.696C165.734 12.5493 165.531 13.312 165.126 13.984C164.72 14.6453 164.16 15.168 163.446 15.552C162.731 15.936 161.92 16.128 161.014 16.128ZM161.014 14.08C161.43 14.08 161.803 13.984 162.134 13.792C162.464 13.6 162.726 13.328 162.918 12.976C163.11 12.6133 163.206 12.1867 163.206 11.696C163.206 11.1947 163.11 10.768 162.918 10.416C162.726 10.064 162.464 9.792 162.134 9.6C161.803 9.408 161.43 9.312 161.014 9.312C160.598 9.312 160.224 9.408 159.894 9.6C159.563 9.792 159.296 10.064 159.094 10.416C158.902 10.768 158.806 11.1947 158.806 11.696C158.806 12.1867 158.902 12.6133 159.094 12.976C159.296 13.328 159.563 13.6 159.894 13.792C160.224 13.984 160.598 14.08 161.014 14.08ZM159.526 6.288L161.686 3.984H164.374L161.478 6.288H159.526ZM171.45 19.232C170.639 19.232 169.855 19.1307 169.098 18.928C168.351 18.736 167.727 18.4427 167.226 18.048L168.218 16.256C168.581 16.5547 169.039 16.7893 169.594 16.96C170.159 17.1413 170.714 17.232 171.258 17.232C172.143 17.232 172.783 17.0347 173.178 16.64C173.583 16.2453 173.786 15.6587 173.786 14.88V13.584L173.946 11.424L173.914 9.248V7.392H176.282V14.56C176.282 16.16 175.866 17.3387 175.034 18.096C174.202 18.8533 173.007 19.232 171.45 19.232ZM171.066 15.584C170.266 15.584 169.541 15.4133 168.89 15.072C168.25 14.72 167.733 14.2347 167.338 13.616C166.954 12.9867 166.762 12.256 166.762 11.424C166.762 10.5813 166.954 9.85067 167.338 9.232C167.733 8.60267 168.25 8.11733 168.89 7.776C169.541 7.43467 170.266 7.264 171.066 7.264C171.791 7.264 172.431 7.41333 172.986 7.712C173.541 8 173.973 8.45333 174.282 9.072C174.591 9.68 174.746 10.464 174.746 11.424C174.746 12.3733 174.591 13.1573 174.282 13.776C173.973 14.384 173.541 14.8373 172.986 15.136C172.431 15.4347 171.791 15.584 171.066 15.584ZM171.562 13.536C171.999 13.536 172.389 13.4507 172.73 13.28C173.071 13.0987 173.338 12.848 173.53 12.528C173.722 12.208 173.818 11.84 173.818 11.424C173.818 10.9973 173.722 10.6293 173.53 10.32C173.338 10 173.071 9.75467 172.73 9.584C172.389 9.40267 171.999 9.312 171.562 9.312C171.125 9.312 170.735 9.40267 170.394 9.584C170.053 9.75467 169.781 10 169.578 10.32C169.386 10.6293 169.29 10.9973 169.29 11.424C169.29 11.84 169.386 12.208 169.578 12.528C169.781 12.848 170.053 13.0987 170.394 13.28C170.735 13.4507 171.125 13.536 171.562 13.536ZM178.605 16V7.392H181.101V16H178.605ZM179.853 6.192C179.394 6.192 179.021 6.05867 178.733 5.792C178.445 5.52533 178.301 5.19467 178.301 4.8C178.301 4.40533 178.445 4.07467 178.733 3.808C179.021 3.54133 179.394 3.408 179.853 3.408C180.312 3.408 180.685 3.536 180.973 3.792C181.261 4.03733 181.405 4.35733 181.405 4.752C181.405 5.168 181.261 5.51467 180.973 5.792C180.696 6.05867 180.322 6.192 179.853 6.192ZM187.578 16.128C186.65 16.128 185.823 15.9413 185.098 15.568C184.372 15.184 183.802 14.656 183.386 13.984C182.98 13.312 182.778 12.5493 182.778 11.696C182.778 10.832 182.98 10.0693 183.386 9.408C183.802 8.736 184.372 8.21333 185.098 7.84C185.823 7.456 186.65 7.264 187.578 7.264C188.484 7.264 189.274 7.456 189.946 7.84C190.618 8.21333 191.114 8.752 191.434 9.456L189.498 10.496C189.274 10.0907 188.991 9.792 188.65 9.6C188.319 9.408 187.956 9.312 187.562 9.312C187.135 9.312 186.751 9.408 186.41 9.6C186.068 9.792 185.796 10.064 185.594 10.416C185.402 10.768 185.306 11.1947 185.306 11.696C185.306 12.1973 185.402 12.624 185.594 12.976C185.796 13.328 186.068 13.6 186.41 13.792C186.751 13.984 187.135 14.08 187.562 14.08C187.956 14.08 188.319 13.9893 188.65 13.808C188.991 13.616 189.274 13.312 189.498 12.896L191.434 13.952C191.114 14.6453 190.618 15.184 189.946 15.568C189.274 15.9413 188.484 16.128 187.578 16.128ZM198.151 16V14.32L197.991 13.952V10.944C197.991 10.4107 197.825 9.99467 197.495 9.696C197.175 9.39733 196.679 9.248 196.007 9.248C195.548 9.248 195.095 9.32267 194.647 9.472C194.209 9.61067 193.836 9.80267 193.527 10.048L192.631 8.304C193.1 7.97333 193.665 7.71733 194.327 7.536C194.988 7.35467 195.66 7.264 196.343 7.264C197.655 7.264 198.673 7.57333 199.399 8.192C200.124 8.81067 200.487 9.776 200.487 11.088V16H198.151ZM195.527 16.128C194.855 16.128 194.279 16.016 193.799 15.792C193.319 15.5573 192.951 15.2427 192.695 14.848C192.439 14.4533 192.311 14.0107 192.311 13.52C192.311 13.008 192.433 12.56 192.679 12.176C192.935 11.792 193.335 11.4933 193.879 11.28C194.423 11.056 195.132 10.944 196.007 10.944H198.295V12.4H196.279C195.692 12.4 195.287 12.496 195.063 12.688C194.849 12.88 194.743 13.12 194.743 13.408C194.743 13.728 194.865 13.984 195.111 14.176C195.367 14.3573 195.713 14.448 196.151 14.448C196.567 14.448 196.94 14.352 197.271 14.16C197.601 13.9573 197.841 13.664 197.991 13.28L198.375 14.432C198.193 14.9867 197.863 15.408 197.383 15.696C196.903 15.984 196.284 16.128 195.527 16.128Z" fill="#0047A6"/>
</svg>
