<svg width="580" height="38" viewBox="0 0 580 38" fill="none" xmlns="http://www.w3.org/2000/svg">
<path d="M0.100006 37V2H9.15001L23.55 20.5V2H33.15V37H24.65L9.70001 17.8V37H0.100006Z" fill="url(#paint0_linear_92_5)"/>
<path d="M52.6078 37.65C43.9578 37.65 37.7078 31.3 37.7078 23.6V23.5C37.7078 15.8 44.0078 9.35 52.7078 9.35C61.3578 9.35 67.6078 15.7 67.6078 23.4V23.5C67.6078 31.2 61.3078 37.65 52.6078 37.65ZM52.7078 29.6C56.1578 29.6 58.3578 26.85 58.3578 23.6V23.5C58.3578 20.2 55.9578 17.4 52.6078 17.4C49.1578 17.4 46.9578 20.15 46.9578 23.4V23.5C46.9578 26.8 49.3578 29.6 52.7078 29.6Z" fill="url(#paint1_linear_92_5)"/>
<path d="M82.1262 37.55C76.4262 37.55 73.0262 35.05 73.0262 28.6V17.6H69.8262V9.95H73.0262V3.1H82.5262V9.95H88.8262V17.6H82.5262V26.75C82.5262 28.65 83.3762 29.45 85.1262 29.45C86.3762 29.45 87.5762 29.1 88.7262 28.55V36C87.0262 36.95 84.7762 37.55 82.1262 37.55Z" fill="url(#paint2_linear_92_5)"/>
<path d="M92.9094 7.5V0.5H102.809V7.5H92.9094ZM93.1094 37V9.95H102.609V37H93.1094Z" fill="url(#paint3_linear_92_5)"/>
<path d="M120.95 37.65C112.8 37.65 106.8 31.25 106.8 23.6V23.5C106.8 15.85 112.75 9.4 121.3 9.4C126.85 9.4 130.55 11.8 132.85 15.45L126.4 20.25C125.1 18.45 123.65 17.4 121.35 17.4C118.3 17.4 116.05 20.1 116.05 23.4V23.5C116.05 27 118.25 29.65 121.45 29.65C123.7 29.65 125.15 28.6 126.65 26.85L133 31.45C130.5 35.15 126.9 37.65 120.95 37.65Z" fill="url(#paint4_linear_92_5)"/>
<path d="M136.366 7.5V0.5H146.266V7.5H136.366ZM136.566 37V9.95H146.066V37H136.566Z" fill="url(#paint5_linear_92_5)"/>
<path d="M159.107 37.6C153.957 37.6 150.007 34.65 150.007 29.25V29.15C150.007 23.55 154.257 20.65 160.607 20.65C163.107 20.65 165.557 21.15 167.107 21.7V21.25C167.107 18.45 165.357 16.85 161.707 16.85C158.857 16.85 156.657 17.4 154.257 18.35L152.307 11.65C155.357 10.4 158.607 9.55 163.257 9.55C168.107 9.55 171.407 10.7 173.557 12.85C175.607 14.85 176.457 17.65 176.457 21.45V37H167.057V34.2C165.207 36.25 162.657 37.6 159.107 37.6ZM162.507 31.65C165.257 31.65 167.207 29.9 167.207 27.2V25.95C166.257 25.55 164.907 25.25 163.507 25.25C160.757 25.25 159.157 26.6 159.157 28.6V28.7C159.157 30.55 160.557 31.65 162.507 31.65Z" fill="url(#paint6_linear_92_5)"/>
<path d="M192.038 37.6C187.488 37.6 182.988 36.3 179.238 33.6L182.788 27.85C185.888 29.9 189.288 30.95 192.088 30.95C193.738 30.95 194.488 30.45 194.488 29.5V29.4C194.488 28.35 192.988 27.9 190.138 27.1C184.788 25.7 180.538 23.9 180.538 18.45V18.35C180.538 12.6 185.138 9.4 191.388 9.4C195.338 9.4 199.438 10.55 202.538 12.55L199.288 18.55C196.488 17 193.438 16.05 191.288 16.05C189.838 16.05 189.088 16.6 189.088 17.35V17.45C189.088 18.5 190.638 19 193.488 19.85C198.838 21.35 203.088 23.2 203.088 28.45V28.55C203.088 34.5 198.638 37.6 192.038 37.6Z" fill="url(#paint7_linear_92_5)"/>
<path d="M231.789 37.6C225.389 37.6 219.839 32.25 219.839 23.6V23.5C219.839 14.7 225.339 9.35 231.739 9.35C235.839 9.35 238.239 11.2 240.039 13.25V0.5H249.539V37H240.039V33.4C238.189 35.65 235.839 37.6 231.789 37.6ZM234.689 29.65C237.739 29.65 240.189 27.1 240.189 23.5V23.4C240.189 19.85 237.739 17.3 234.689 17.3C231.639 17.3 229.139 19.8 229.139 23.4V23.5C229.139 27.1 231.639 29.65 234.689 29.65Z" fill="url(#paint8_linear_92_5)"/>
<path d="M268.028 37.65C259.528 37.65 253.528 32 253.528 23.6V23.5C253.528 15.6 259.178 9.35 267.178 9.35C276.528 9.35 280.828 16.2 280.828 24.15C280.828 24.75 280.828 25.45 280.778 26.1H262.678C263.428 29.05 265.578 30.55 268.528 30.55C270.778 30.55 272.578 29.7 274.528 27.8L279.778 32.15C277.178 35.45 273.428 37.65 268.028 37.65ZM262.528 21.25H271.928C271.578 18.25 269.828 16.35 267.228 16.35C264.728 16.35 263.028 18.3 262.528 21.25Z" fill="url(#paint9_linear_92_5)"/>
<path d="M298.969 37V0.5H308.469V37H298.969Z" fill="url(#paint10_linear_92_5)"/>
<path d="M321.509 37.6C316.359 37.6 312.409 34.65 312.409 29.25V29.15C312.409 23.55 316.659 20.65 323.009 20.65C325.509 20.65 327.959 21.15 329.509 21.7V21.25C329.509 18.45 327.759 16.85 324.109 16.85C321.259 16.85 319.059 17.4 316.659 18.35L314.709 11.65C317.759 10.4 321.009 9.55 325.659 9.55C330.509 9.55 333.809 10.7 335.959 12.85C338.009 14.85 338.859 17.65 338.859 21.45V37H329.459V34.2C327.609 36.25 325.059 37.6 321.509 37.6ZM324.909 31.65C327.659 31.65 329.609 29.9 329.609 27.2V25.95C328.659 25.55 327.309 25.25 325.909 25.25C323.159 25.25 321.559 26.6 321.559 28.6V28.7C321.559 30.55 322.959 31.65 324.909 31.65Z" fill="url(#paint11_linear_92_5)"/>
<path d="M358.308 37V2H368.058V37H358.308Z" fill="url(#paint12_linear_92_5)"/>
<path d="M373.915 37V9.95H383.415V13.75C385.165 11.5 387.665 9.35 391.515 9.35C397.265 9.35 400.715 13.15 400.715 19.3V37H391.215V22.35C391.215 19.4 389.665 17.8 387.415 17.8C385.115 17.8 383.415 19.4 383.415 22.35V37H373.915Z" fill="url(#paint13_linear_92_5)"/>
<path d="M416.555 37.6C410.155 37.6 404.605 32.25 404.605 23.6V23.5C404.605 14.7 410.105 9.35 416.505 9.35C420.605 9.35 423.005 11.2 424.805 13.25V0.5H434.305V37H424.805V33.4C422.955 35.65 420.605 37.6 416.555 37.6ZM419.455 29.65C422.505 29.65 424.955 27.1 424.955 23.5V23.4C424.955 19.85 422.505 17.3 419.455 17.3C416.405 17.3 413.905 19.8 413.905 23.4V23.5C413.905 27.1 416.405 29.65 419.455 29.65Z" fill="url(#paint14_linear_92_5)"/>
<path d="M448.394 37.6C442.644 37.6 439.194 33.8 439.194 27.65V9.95H448.694V24.6C448.694 27.55 450.244 29.15 452.544 29.15C454.794 29.15 456.494 27.55 456.494 24.6V9.95H465.994V37H456.494V33.3C454.744 35.55 452.244 37.6 448.394 37.6Z" fill="url(#paint15_linear_92_5)"/>
<path d="M481.833 37.6C477.283 37.6 472.783 36.3 469.033 33.6L472.583 27.85C475.683 29.9 479.083 30.95 481.883 30.95C483.533 30.95 484.283 30.45 484.283 29.5V29.4C484.283 28.35 482.783 27.9 479.933 27.1C474.583 25.7 470.333 23.9 470.333 18.45V18.35C470.333 12.6 474.933 9.4 481.183 9.4C485.133 9.4 489.233 10.55 492.333 12.55L489.083 18.55C486.283 17 483.233 16.05 481.083 16.05C479.633 16.05 478.883 16.6 478.883 17.35V17.45C478.883 18.5 480.433 19 483.283 19.85C488.633 21.35 492.883 23.2 492.883 28.45V28.55C492.883 34.5 488.433 37.6 481.833 37.6Z" fill="url(#paint16_linear_92_5)"/>
<path d="M507.029 37.55C501.329 37.55 497.929 35.05 497.929 28.6V17.6H494.729V9.95H497.929V3.1H507.429V9.95H513.729V17.6H507.429V26.75C507.429 28.65 508.279 29.45 510.029 29.45C511.279 29.45 512.479 29.1 513.629 28.55V36C511.929 36.95 509.679 37.55 507.029 37.55Z" fill="url(#paint17_linear_92_5)"/>
<path d="M517.812 37V9.95H527.312V15.4C528.862 11.7 531.362 9.3 535.862 9.5V19.5H535.062C530.112 19.5 527.312 22.35 527.312 28.6V37H517.812Z" fill="url(#paint18_linear_92_5)"/>
<path d="M539.198 7.5V0.5H549.098V7.5H539.198ZM539.398 37V9.95H548.898V37H539.398Z" fill="url(#paint19_linear_92_5)"/>
<path d="M561.939 37.6C556.789 37.6 552.839 34.65 552.839 29.25V29.15C552.839 23.55 557.089 20.65 563.439 20.65C565.939 20.65 568.389 21.15 569.939 21.7V21.25C569.939 18.45 568.189 16.85 564.539 16.85C561.689 16.85 559.489 17.4 557.089 18.35L555.139 11.65C558.189 10.4 561.439 9.55 566.089 9.55C570.939 9.55 574.239 10.7 576.389 12.85C578.439 14.85 579.289 17.65 579.289 21.45V37H569.889V34.2C568.039 36.25 565.489 37.6 561.939 37.6ZM565.339 31.65C568.089 31.65 570.039 29.9 570.039 27.2V25.95C569.089 25.55 567.739 25.25 566.339 25.25C563.589 25.25 561.989 26.6 561.989 28.6V28.7C561.989 30.55 563.389 31.65 565.339 31.65Z" fill="url(#paint20_linear_92_5)"/>
<defs>
<linearGradient id="paint0_linear_92_5" x1="22.3613" y1="6.48276" x2="546.957" y2="28.6091" gradientUnits="userSpaceOnUse">
<stop stop-color="#0047A6"/>
<stop offset="1" stop-color="#FC2902"/>
</linearGradient>
<linearGradient id="paint1_linear_92_5" x1="22.3613" y1="6.48276" x2="546.957" y2="28.6091" gradientUnits="userSpaceOnUse">
<stop stop-color="#0047A6"/>
<stop offset="1" stop-color="#FC2902"/>
</linearGradient>
<linearGradient id="paint2_linear_92_5" x1="22.3613" y1="6.48276" x2="546.957" y2="28.6091" gradientUnits="userSpaceOnUse">
<stop stop-color="#0047A6"/>
<stop offset="1" stop-color="#FC2902"/>
</linearGradient>
<linearGradient id="paint3_linear_92_5" x1="22.3613" y1="6.48276" x2="546.957" y2="28.6091" gradientUnits="userSpaceOnUse">
<stop stop-color="#0047A6"/>
<stop offset="1" stop-color="#FC2902"/>
</linearGradient>
<linearGradient id="paint4_linear_92_5" x1="22.3613" y1="6.48276" x2="546.957" y2="28.6091" gradientUnits="userSpaceOnUse">
<stop stop-color="#0047A6"/>
<stop offset="1" stop-color="#FC2902"/>
</linearGradient>
<linearGradient id="paint5_linear_92_5" x1="22.3613" y1="6.48276" x2="546.957" y2="28.6091" gradientUnits="userSpaceOnUse">
<stop stop-color="#0047A6"/>
<stop offset="1" stop-color="#FC2902"/>
</linearGradient>
<linearGradient id="paint6_linear_92_5" x1="22.3613" y1="6.48276" x2="546.957" y2="28.6091" gradientUnits="userSpaceOnUse">
<stop stop-color="#0047A6"/>
<stop offset="1" stop-color="#FC2902"/>
</linearGradient>
<linearGradient id="paint7_linear_92_5" x1="22.3613" y1="6.48276" x2="546.957" y2="28.6091" gradientUnits="userSpaceOnUse">
<stop stop-color="#0047A6"/>
<stop offset="1" stop-color="#FC2902"/>
</linearGradient>
<linearGradient id="paint8_linear_92_5" x1="22.3613" y1="6.48276" x2="546.957" y2="28.6091" gradientUnits="userSpaceOnUse">
<stop stop-color="#0047A6"/>
<stop offset="1" stop-color="#FC2902"/>
</linearGradient>
<linearGradient id="paint9_linear_92_5" x1="22.3613" y1="6.48276" x2="546.957" y2="28.6091" gradientUnits="userSpaceOnUse">
<stop stop-color="#0047A6"/>
<stop offset="1" stop-color="#FC2902"/>
</linearGradient>
<linearGradient id="paint10_linear_92_5" x1="22.3613" y1="6.48276" x2="546.957" y2="28.6091" gradientUnits="userSpaceOnUse">
<stop stop-color="#0047A6"/>
<stop offset="1" stop-color="#FC2902"/>
</linearGradient>
<linearGradient id="paint11_linear_92_5" x1="22.3613" y1="6.48276" x2="546.957" y2="28.6091" gradientUnits="userSpaceOnUse">
<stop stop-color="#0047A6"/>
<stop offset="1" stop-color="#FC2902"/>
</linearGradient>
<linearGradient id="paint12_linear_92_5" x1="22.3613" y1="6.48276" x2="546.957" y2="28.6091" gradientUnits="userSpaceOnUse">
<stop stop-color="#0047A6"/>
<stop offset="1" stop-color="#FC2902"/>
</linearGradient>
<linearGradient id="paint13_linear_92_5" x1="22.3613" y1="6.48276" x2="546.957" y2="28.6091" gradientUnits="userSpaceOnUse">
<stop stop-color="#0047A6"/>
<stop offset="1" stop-color="#FC2902"/>
</linearGradient>
<linearGradient id="paint14_linear_92_5" x1="22.3613" y1="6.48276" x2="546.957" y2="28.6091" gradientUnits="userSpaceOnUse">
<stop stop-color="#0047A6"/>
<stop offset="1" stop-color="#FC2902"/>
</linearGradient>
<linearGradient id="paint15_linear_92_5" x1="22.3613" y1="6.48276" x2="546.957" y2="28.6091" gradientUnits="userSpaceOnUse">
<stop stop-color="#0047A6"/>
<stop offset="1" stop-color="#FC2902"/>
</linearGradient>
<linearGradient id="paint16_linear_92_5" x1="22.3613" y1="6.48276" x2="546.957" y2="28.6091" gradientUnits="userSpaceOnUse">
<stop stop-color="#0047A6"/>
<stop offset="1" stop-color="#FC2902"/>
</linearGradient>
<linearGradient id="paint17_linear_92_5" x1="22.3613" y1="6.48276" x2="546.957" y2="28.6091" gradientUnits="userSpaceOnUse">
<stop stop-color="#0047A6"/>
<stop offset="1" stop-color="#FC2902"/>
</linearGradient>
<linearGradient id="paint18_linear_92_5" x1="22.3613" y1="6.48276" x2="546.957" y2="28.6091" gradientUnits="userSpaceOnUse">
<stop stop-color="#0047A6"/>
<stop offset="1" stop-color="#FC2902"/>
</linearGradient>
<linearGradient id="paint19_linear_92_5" x1="22.3613" y1="6.48276" x2="546.957" y2="28.6091" gradientUnits="userSpaceOnUse">
<stop stop-color="#0047A6"/>
<stop offset="1" stop-color="#FC2902"/>
</linearGradient>
<linearGradient id="paint20_linear_92_5" x1="22.3613" y1="6.48276" x2="546.957" y2="28.6091" gradientUnits="userSpaceOnUse">
<stop stop-color="#0047A6"/>
<stop offset="1" stop-color="#FC2902"/>
</linearGradient>
</defs>
</svg>
