<svg width="442" height="38" viewBox="0 0 442 38" fill="none" xmlns="http://www.w3.org/2000/svg">
<path d="M0.100006 37V2H9.15001L23.55 20.5V2H33.15V37H24.65L9.70001 17.8V37H0.100006Z" fill="url(#paint0_linear_92_6)"/>
<path d="M47.8078 37.6C42.0578 37.6 38.6078 33.8 38.6078 27.65V9.95H48.1078V24.6C48.1078 27.55 49.6578 29.15 51.9578 29.15C54.2078 29.15 55.9078 27.55 55.9078 24.6V9.95H65.4078V37H55.9078V33.3C54.1578 35.55 51.6578 37.6 47.8078 37.6Z" fill="url(#paint1_linear_92_6)"/>
<path d="M83.8973 37.65C75.3973 37.65 69.3973 32 69.3973 23.6V23.5C69.3973 15.6 75.0473 9.35 83.0473 9.35C92.3973 9.35 96.6973 16.2 96.6973 24.15C96.6973 24.75 96.6973 25.45 96.6473 26.1H78.5473C79.2973 29.05 81.4473 30.55 84.3973 30.55C86.6473 30.55 88.4473 29.7 90.3973 27.8L95.6473 32.15C93.0473 35.45 89.2973 37.65 83.8973 37.65ZM78.3973 21.25H87.7973C87.4473 18.25 85.6973 16.35 83.0973 16.35C80.5973 16.35 78.8973 18.3 78.3973 21.25Z" fill="url(#paint2_linear_92_6)"/>
<path d="M111.521 37.6C106.971 37.6 102.471 36.3 98.7207 33.6L102.271 27.85C105.371 29.9 108.771 30.95 111.571 30.95C113.221 30.95 113.971 30.45 113.971 29.5V29.4C113.971 28.35 112.471 27.9 109.621 27.1C104.271 25.7 100.021 23.9 100.021 18.45V18.35C100.021 12.6 104.621 9.4 110.871 9.4C114.821 9.4 118.921 10.55 122.021 12.55L118.771 18.55C115.971 17 112.921 16.05 110.771 16.05C109.321 16.05 108.571 16.6 108.571 17.35V17.45C108.571 18.5 110.121 19 112.971 19.85C118.321 21.35 122.571 23.2 122.571 28.45V28.55C122.571 34.5 118.121 37.6 111.521 37.6Z" fill="url(#paint3_linear_92_6)"/>
<path d="M136.716 37.55C131.016 37.55 127.616 35.05 127.616 28.6V17.6H124.416V9.95H127.616V3.1H137.116V9.95H143.416V17.6H137.116V26.75C137.116 28.65 137.966 29.45 139.716 29.45C140.966 29.45 142.166 29.1 143.316 28.55V36C141.616 36.95 139.366 37.55 136.716 37.55Z" fill="url(#paint4_linear_92_6)"/>
<path d="M147.499 37V9.95H156.999V15.4C158.549 11.7 161.049 9.3 165.549 9.5V19.5H164.749C159.799 19.5 156.999 22.35 156.999 28.6V37H147.499Z" fill="url(#paint5_linear_92_6)"/>
<path d="M182.198 37.65C173.548 37.65 167.298 31.3 167.298 23.6V23.5C167.298 15.8 173.598 9.35 182.298 9.35C190.948 9.35 197.198 15.7 197.198 23.4V23.5C197.198 31.2 190.898 37.65 182.198 37.65ZM182.298 29.6C185.748 29.6 187.948 26.85 187.948 23.6V23.5C187.948 20.2 185.548 17.4 182.198 17.4C178.748 17.4 176.548 20.15 176.548 23.4V23.5C176.548 26.8 178.948 29.6 182.298 29.6Z" fill="url(#paint6_linear_92_6)"/>
<path d="M211.814 37.6C207.264 37.6 202.764 36.3 199.014 33.6L202.564 27.85C205.664 29.9 209.064 30.95 211.864 30.95C213.514 30.95 214.264 30.45 214.264 29.5V29.4C214.264 28.35 212.764 27.9 209.914 27.1C204.564 25.7 200.314 23.9 200.314 18.45V18.35C200.314 12.6 204.914 9.4 211.164 9.4C215.114 9.4 219.214 10.55 222.314 12.55L219.064 18.55C216.264 17 213.214 16.05 211.064 16.05C209.614 16.05 208.864 16.6 208.864 17.35V17.45C208.864 18.5 210.414 19 213.264 19.85C218.614 21.35 222.864 23.2 222.864 28.45V28.55C222.864 34.5 218.414 37.6 211.814 37.6Z" fill="url(#paint7_linear_92_6)"/>
<path d="M258.014 37.7C248.014 37.7 239.964 30.05 239.964 19.6V19.5C239.964 9.3 247.814 1.3 258.414 1.3C265.564 1.3 270.164 4.3 273.264 8.6L265.964 14.25C263.964 11.75 261.664 10.15 258.314 10.15C253.414 10.15 249.964 14.3 249.964 19.4V19.5C249.964 24.75 253.414 28.85 258.314 28.85C261.964 28.85 264.114 27.15 266.214 24.6L273.514 29.8C270.214 34.35 265.764 37.7 258.014 37.7Z" fill="url(#paint8_linear_92_6)"/>
<path d="M277.338 37V0.5H286.838V37H277.338Z" fill="url(#paint9_linear_92_6)"/>
<path d="M292.128 7.5V0.5H302.028V7.5H292.128ZM292.328 37V9.95H301.828V37H292.328Z" fill="url(#paint10_linear_92_6)"/>
<path d="M320.518 37.65C312.018 37.65 306.018 32 306.018 23.6V23.5C306.018 15.6 311.668 9.35 319.668 9.35C329.018 9.35 333.318 16.2 333.318 24.15C333.318 24.75 333.318 25.45 333.268 26.1H315.168C315.918 29.05 318.068 30.55 321.018 30.55C323.268 30.55 325.068 29.7 327.018 27.8L332.268 32.15C329.668 35.45 325.918 37.65 320.518 37.65ZM315.018 21.25H324.418C324.068 18.25 322.318 16.35 319.718 16.35C317.218 16.35 315.518 18.3 315.018 21.25Z" fill="url(#paint11_linear_92_6)"/>
<path d="M337.392 37V9.95H346.892V13.75C348.642 11.5 351.142 9.35 354.992 9.35C360.742 9.35 364.192 13.15 364.192 19.3V37H354.692V22.35C354.692 19.4 353.142 17.8 350.892 17.8C348.592 17.8 346.892 19.4 346.892 22.35V37H337.392Z" fill="url(#paint12_linear_92_6)"/>
<path d="M379.831 37.55C374.131 37.55 370.731 35.05 370.731 28.6V17.6H367.531V9.95H370.731V3.1H380.231V9.95H386.531V17.6H380.231V26.75C380.231 28.65 381.081 29.45 382.831 29.45C384.081 29.45 385.281 29.1 386.431 28.55V36C384.731 36.95 382.481 37.55 379.831 37.55Z" fill="url(#paint13_linear_92_6)"/>
<path d="M403.282 37.65C394.782 37.65 388.782 32 388.782 23.6V23.5C388.782 15.6 394.432 9.35 402.432 9.35C411.782 9.35 416.082 16.2 416.082 24.15C416.082 24.75 416.082 25.45 416.032 26.1H397.932C398.682 29.05 400.832 30.55 403.782 30.55C406.032 30.55 407.832 29.7 409.782 27.8L415.032 32.15C412.432 35.45 408.682 37.65 403.282 37.65ZM397.782 21.25H407.182C406.832 18.25 405.082 16.35 402.482 16.35C399.982 16.35 398.282 18.3 397.782 21.25Z" fill="url(#paint14_linear_92_6)"/>
<path d="M430.905 37.6C426.355 37.6 421.855 36.3 418.105 33.6L421.655 27.85C424.755 29.9 428.155 30.95 430.955 30.95C432.605 30.95 433.355 30.45 433.355 29.5V29.4C433.355 28.35 431.855 27.9 429.005 27.1C423.655 25.7 419.405 23.9 419.405 18.45V18.35C419.405 12.6 424.005 9.4 430.255 9.4C434.205 9.4 438.305 10.55 441.405 12.55L438.155 18.55C435.355 17 432.305 16.05 430.155 16.05C428.705 16.05 427.955 16.6 427.955 17.35V17.45C427.955 18.5 429.505 19 432.355 19.85C437.705 21.35 441.955 23.2 441.955 28.45V28.55C441.955 34.5 437.505 37.6 430.905 37.6Z" fill="url(#paint15_linear_92_6)"/>
<defs>
<linearGradient id="paint0_linear_92_6" x1="16.3786" y1="6.48276" x2="417.52" y2="19.4108" gradientUnits="userSpaceOnUse">
<stop stop-color="#0047A6"/>
<stop offset="1" stop-color="#FC2902"/>
</linearGradient>
<linearGradient id="paint1_linear_92_6" x1="16.3786" y1="6.48276" x2="417.52" y2="19.4108" gradientUnits="userSpaceOnUse">
<stop stop-color="#0047A6"/>
<stop offset="1" stop-color="#FC2902"/>
</linearGradient>
<linearGradient id="paint2_linear_92_6" x1="16.3786" y1="6.48276" x2="417.52" y2="19.4108" gradientUnits="userSpaceOnUse">
<stop stop-color="#0047A6"/>
<stop offset="1" stop-color="#FC2902"/>
</linearGradient>
<linearGradient id="paint3_linear_92_6" x1="16.3786" y1="6.48276" x2="417.52" y2="19.4108" gradientUnits="userSpaceOnUse">
<stop stop-color="#0047A6"/>
<stop offset="1" stop-color="#FC2902"/>
</linearGradient>
<linearGradient id="paint4_linear_92_6" x1="16.3786" y1="6.48276" x2="417.52" y2="19.4108" gradientUnits="userSpaceOnUse">
<stop stop-color="#0047A6"/>
<stop offset="1" stop-color="#FC2902"/>
</linearGradient>
<linearGradient id="paint5_linear_92_6" x1="16.3786" y1="6.48276" x2="417.52" y2="19.4108" gradientUnits="userSpaceOnUse">
<stop stop-color="#0047A6"/>
<stop offset="1" stop-color="#FC2902"/>
</linearGradient>
<linearGradient id="paint6_linear_92_6" x1="16.3786" y1="6.48276" x2="417.52" y2="19.4108" gradientUnits="userSpaceOnUse">
<stop stop-color="#0047A6"/>
<stop offset="1" stop-color="#FC2902"/>
</linearGradient>
<linearGradient id="paint7_linear_92_6" x1="16.3786" y1="6.48276" x2="417.52" y2="19.4108" gradientUnits="userSpaceOnUse">
<stop stop-color="#0047A6"/>
<stop offset="1" stop-color="#FC2902"/>
</linearGradient>
<linearGradient id="paint8_linear_92_6" x1="16.3786" y1="6.48276" x2="417.52" y2="19.4108" gradientUnits="userSpaceOnUse">
<stop stop-color="#0047A6"/>
<stop offset="1" stop-color="#FC2902"/>
</linearGradient>
<linearGradient id="paint9_linear_92_6" x1="16.3786" y1="6.48276" x2="417.52" y2="19.4108" gradientUnits="userSpaceOnUse">
<stop stop-color="#0047A6"/>
<stop offset="1" stop-color="#FC2902"/>
</linearGradient>
<linearGradient id="paint10_linear_92_6" x1="16.3786" y1="6.48276" x2="417.52" y2="19.4108" gradientUnits="userSpaceOnUse">
<stop stop-color="#0047A6"/>
<stop offset="1" stop-color="#FC2902"/>
</linearGradient>
<linearGradient id="paint11_linear_92_6" x1="16.3786" y1="6.48276" x2="417.52" y2="19.4108" gradientUnits="userSpaceOnUse">
<stop stop-color="#0047A6"/>
<stop offset="1" stop-color="#FC2902"/>
</linearGradient>
<linearGradient id="paint12_linear_92_6" x1="16.3786" y1="6.48276" x2="417.52" y2="19.4108" gradientUnits="userSpaceOnUse">
<stop stop-color="#0047A6"/>
<stop offset="1" stop-color="#FC2902"/>
</linearGradient>
<linearGradient id="paint13_linear_92_6" x1="16.3786" y1="6.48276" x2="417.52" y2="19.4108" gradientUnits="userSpaceOnUse">
<stop stop-color="#0047A6"/>
<stop offset="1" stop-color="#FC2902"/>
</linearGradient>
<linearGradient id="paint14_linear_92_6" x1="16.3786" y1="6.48276" x2="417.52" y2="19.4108" gradientUnits="userSpaceOnUse">
<stop stop-color="#0047A6"/>
<stop offset="1" stop-color="#FC2902"/>
</linearGradient>
<linearGradient id="paint15_linear_92_6" x1="16.3786" y1="6.48276" x2="417.52" y2="19.4108" gradientUnits="userSpaceOnUse">
<stop stop-color="#0047A6"/>
<stop offset="1" stop-color="#FC2902"/>
</linearGradient>
</defs>
</svg>
