<svg width="613" height="46" viewBox="0 0 613 46" fill="none" xmlns="http://www.w3.org/2000/svg">
<path d="M0.100006 37V2H9.15001L23.55 20.5V2H33.15V37H24.65L9.70001 17.8V37H0.100006Z" fill="url(#paint0_linear_92_4)"/>
<path d="M47.8078 37.6C42.0578 37.6 38.6078 33.8 38.6078 27.65V9.95H48.1078V24.6C48.1078 27.55 49.6578 29.15 51.9578 29.15C54.2078 29.15 55.9078 27.55 55.9078 24.6V9.95H65.4078V37H55.9078V33.3C54.1578 35.55 51.6578 37.6 47.8078 37.6Z" fill="url(#paint1_linear_92_4)"/>
<path d="M83.8973 37.65C75.3973 37.65 69.3973 32 69.3973 23.6V23.5C69.3973 15.6 75.0473 9.35 83.0473 9.35C92.3973 9.35 96.6973 16.2 96.6973 24.15C96.6973 24.75 96.6973 25.45 96.6473 26.1H78.5473C79.2973 29.05 81.4473 30.55 84.3973 30.55C86.6473 30.55 88.4473 29.7 90.3973 27.8L95.6473 32.15C93.0473 35.45 89.2973 37.65 83.8973 37.65ZM78.3973 21.25H87.7973C87.4473 18.25 85.6973 16.35 83.0973 16.35C80.5973 16.35 78.8973 18.3 78.3973 21.25Z" fill="url(#paint2_linear_92_4)"/>
<path d="M111.521 37.6C106.971 37.6 102.471 36.3 98.7207 33.6L102.271 27.85C105.371 29.9 108.771 30.95 111.571 30.95C113.221 30.95 113.971 30.45 113.971 29.5V29.4C113.971 28.35 112.471 27.9 109.621 27.1C104.271 25.7 100.021 23.9 100.021 18.45V18.35C100.021 12.6 104.621 9.4 110.871 9.4C114.821 9.4 118.921 10.55 122.021 12.55L118.771 18.55C115.971 17 112.921 16.05 110.771 16.05C109.321 16.05 108.571 16.6 108.571 17.35V17.45C108.571 18.5 110.121 19 112.971 19.85C118.321 21.35 122.571 23.2 122.571 28.45V28.55C122.571 34.5 118.121 37.6 111.521 37.6Z" fill="url(#paint3_linear_92_4)"/>
<path d="M136.716 37.55C131.016 37.55 127.616 35.05 127.616 28.6V17.6H124.416V9.95H127.616V3.1H137.116V9.95H143.416V17.6H137.116V26.75C137.116 28.65 137.966 29.45 139.716 29.45C140.966 29.45 142.166 29.1 143.316 28.55V36C141.616 36.95 139.366 37.55 136.716 37.55Z" fill="url(#paint4_linear_92_4)"/>
<path d="M147.499 37V9.95H156.999V15.4C158.549 11.7 161.049 9.3 165.549 9.5V19.5H164.749C159.799 19.5 156.999 22.35 156.999 28.6V37H147.499Z" fill="url(#paint5_linear_92_4)"/>
<path d="M182.198 37.65C173.548 37.65 167.298 31.3 167.298 23.6V23.5C167.298 15.8 173.598 9.35 182.298 9.35C190.948 9.35 197.198 15.7 197.198 23.4V23.5C197.198 31.2 190.898 37.65 182.198 37.65ZM182.298 29.6C185.748 29.6 187.948 26.85 187.948 23.6V23.5C187.948 20.2 185.548 17.4 182.198 17.4C178.748 17.4 176.548 20.15 176.548 23.4V23.5C176.548 26.8 178.948 29.6 182.298 29.6Z" fill="url(#paint6_linear_92_4)"/>
<path d="M227.027 37.25L212.827 2H223.677L231.627 24.15L239.577 2H250.227L236.027 37.25H227.027Z" fill="url(#paint7_linear_92_4)"/>
<path d="M257.056 37.6C251.906 37.6 247.956 34.65 247.956 29.25V29.15C247.956 23.55 252.206 20.65 258.556 20.65C261.056 20.65 263.506 21.15 265.056 21.7V21.25C265.056 18.45 263.306 16.85 259.656 16.85C256.806 16.85 254.606 17.4 252.206 18.35L250.256 11.65C253.306 10.4 256.556 9.55 261.206 9.55C266.056 9.55 269.356 10.7 271.506 12.85C273.556 14.85 274.406 17.65 274.406 21.45V37H265.006V34.2C263.156 36.25 260.606 37.6 257.056 37.6ZM260.456 31.65C263.206 31.65 265.156 29.9 265.156 27.2V25.95C264.206 25.55 262.856 25.25 261.456 25.25C258.706 25.25 257.106 26.6 257.106 28.6V28.7C257.106 30.55 258.506 31.65 260.456 31.65Z" fill="url(#paint8_linear_92_4)"/>
<path d="M279.438 37V0.5H288.938V37H279.438Z" fill="url(#paint9_linear_92_4)"/>
<path d="M308.028 37.65C299.378 37.65 293.128 31.3 293.128 23.6V23.5C293.128 15.8 299.428 9.35 308.128 9.35C316.778 9.35 323.028 15.7 323.028 23.4V23.5C323.028 31.2 316.728 37.65 308.028 37.65ZM308.128 29.6C311.578 29.6 313.778 26.85 313.778 23.6V23.5C313.778 20.2 311.378 17.4 308.028 17.4C304.578 17.4 302.378 20.15 302.378 23.4V23.5C302.378 26.8 304.778 29.6 308.128 29.6Z" fill="url(#paint10_linear_92_4)"/>
<path d="M327.04 37V9.95H336.54V15.4C338.09 11.7 340.59 9.3 345.09 9.5V19.5H344.29C339.34 19.5 336.54 22.35 336.54 28.6V37H327.04Z" fill="url(#paint11_linear_92_4)"/>
<path d="M360.044 37L374.944 1.75H384.294L399.194 37H388.794L386.244 30.75H372.744L370.244 37H360.044ZM375.594 23.2H383.444L379.544 13.25L375.594 23.2Z" fill="url(#paint12_linear_92_4)"/>
<path d="M414.071 45.1C408.821 45.1 404.421 44 400.521 42L403.571 35.7C406.471 37.3 409.371 38.25 413.021 38.25C417.771 38.25 420.121 35.9 420.121 31.6V30.55C418.221 32.75 415.721 34.6 411.771 34.6C405.121 34.6 399.771 29.8 399.771 22.05V21.95C399.771 14.15 405.221 9.35 411.471 9.35C415.521 9.35 417.921 11 419.971 13.15V9.95H429.471V30.5C429.471 35.45 428.371 38.9 425.971 41.3C423.521 43.75 419.721 45.1 414.071 45.1ZM414.621 27.3C417.821 27.3 420.121 25.05 420.121 22.05V21.95C420.121 18.95 417.821 16.75 414.621 16.75C411.371 16.75 409.071 19 409.071 22V22.1C409.071 25.1 411.371 27.3 414.621 27.3Z" fill="url(#paint13_linear_92_4)"/>
<path d="M434.56 37V9.95H444.06V15.4C445.61 11.7 448.11 9.3 452.61 9.5V19.5H451.81C446.86 19.5 444.06 22.35 444.06 28.6V37H434.56Z" fill="url(#paint14_linear_92_4)"/>
<path d="M468.858 37.65C460.358 37.65 454.358 32 454.358 23.6V23.5C454.358 15.6 460.008 9.35 468.008 9.35C477.358 9.35 481.658 16.2 481.658 24.15C481.658 24.75 481.658 25.45 481.608 26.1H463.508C464.258 29.05 466.408 30.55 469.358 30.55C471.608 30.55 473.408 29.7 475.358 27.8L480.608 32.15C478.008 35.45 474.258 37.65 468.858 37.65ZM463.358 21.25H472.758C472.408 18.25 470.658 16.35 468.058 16.35C465.558 16.35 463.858 18.3 463.358 21.25Z" fill="url(#paint15_linear_92_4)"/>
<path d="M499.032 45.1C493.782 45.1 489.382 44 485.482 42L488.532 35.7C491.432 37.3 494.332 38.25 497.982 38.25C502.732 38.25 505.082 35.9 505.082 31.6V30.55C503.182 32.75 500.682 34.6 496.732 34.6C490.082 34.6 484.732 29.8 484.732 22.05V21.95C484.732 14.15 490.182 9.35 496.432 9.35C500.482 9.35 502.882 11 504.932 13.15V9.95H514.432V30.5C514.432 35.45 513.332 38.9 510.932 41.3C508.482 43.75 504.682 45.1 499.032 45.1ZM499.582 27.3C502.782 27.3 505.082 25.05 505.082 22.05V21.95C505.082 18.95 502.782 16.75 499.582 16.75C496.332 16.75 494.032 19 494.032 22V22.1C494.032 25.1 496.332 27.3 499.582 27.3Z" fill="url(#paint16_linear_92_4)"/>
<path d="M527.271 37.6C522.121 37.6 518.171 34.65 518.171 29.25V29.15C518.171 23.55 522.421 20.65 528.771 20.65C531.271 20.65 533.721 21.15 535.271 21.7V21.25C535.271 18.45 533.521 16.85 529.871 16.85C527.021 16.85 524.821 17.4 522.421 18.35L520.471 11.65C523.521 10.4 526.771 9.55 531.421 9.55C536.271 9.55 539.571 10.7 541.721 12.85C543.771 14.85 544.621 17.65 544.621 21.45V37H535.221V34.2C533.371 36.25 530.821 37.6 527.271 37.6ZM530.671 31.65C533.421 31.65 535.371 29.9 535.371 27.2V25.95C534.421 25.55 533.071 25.25 531.671 25.25C528.921 25.25 527.321 26.6 527.321 28.6V28.7C527.321 30.55 528.721 31.65 530.671 31.65Z" fill="url(#paint17_linear_92_4)"/>
<path d="M560.402 37.6C554.002 37.6 548.452 32.25 548.452 23.6V23.5C548.452 14.7 553.952 9.35 560.352 9.35C564.452 9.35 566.852 11.2 568.652 13.25V0.5H578.152V37H568.652V33.4C566.802 35.65 564.452 37.6 560.402 37.6ZM563.302 29.65C566.352 29.65 568.802 27.1 568.802 23.5V23.4C568.802 19.85 566.352 17.3 563.302 17.3C560.252 17.3 557.752 19.8 557.752 23.4V23.5C557.752 27.1 560.252 29.65 563.302 29.65Z" fill="url(#paint18_linear_92_4)"/>
<path d="M597.041 37.65C588.391 37.65 582.141 31.3 582.141 23.6V23.5C582.141 15.8 588.441 9.35 597.141 9.35C605.791 9.35 612.041 15.7 612.041 23.4V23.5C612.041 31.2 605.741 37.65 597.041 37.65ZM597.141 29.6C600.591 29.6 602.791 26.85 602.791 23.6V23.5C602.791 20.2 600.391 17.4 597.041 17.4C593.591 17.4 591.391 20.15 591.391 23.4V23.5C591.391 26.8 593.791 29.6 597.141 29.6Z" fill="url(#paint19_linear_92_4)"/>
<defs>
<linearGradient id="paint0_linear_92_4" x1="23.7486" y1="6.48276" x2="576.93" y2="31.0911" gradientUnits="userSpaceOnUse">
<stop stop-color="#0047A6"/>
<stop offset="1" stop-color="#FC2902"/>
</linearGradient>
<linearGradient id="paint1_linear_92_4" x1="23.7486" y1="6.48276" x2="576.93" y2="31.0911" gradientUnits="userSpaceOnUse">
<stop stop-color="#0047A6"/>
<stop offset="1" stop-color="#FC2902"/>
</linearGradient>
<linearGradient id="paint2_linear_92_4" x1="23.7486" y1="6.48276" x2="576.93" y2="31.0911" gradientUnits="userSpaceOnUse">
<stop stop-color="#0047A6"/>
<stop offset="1" stop-color="#FC2902"/>
</linearGradient>
<linearGradient id="paint3_linear_92_4" x1="23.7486" y1="6.48276" x2="576.93" y2="31.0911" gradientUnits="userSpaceOnUse">
<stop stop-color="#0047A6"/>
<stop offset="1" stop-color="#FC2902"/>
</linearGradient>
<linearGradient id="paint4_linear_92_4" x1="23.7486" y1="6.48276" x2="576.93" y2="31.0911" gradientUnits="userSpaceOnUse">
<stop stop-color="#0047A6"/>
<stop offset="1" stop-color="#FC2902"/>
</linearGradient>
<linearGradient id="paint5_linear_92_4" x1="23.7486" y1="6.48276" x2="576.93" y2="31.0911" gradientUnits="userSpaceOnUse">
<stop stop-color="#0047A6"/>
<stop offset="1" stop-color="#FC2902"/>
</linearGradient>
<linearGradient id="paint6_linear_92_4" x1="23.7486" y1="6.48276" x2="576.93" y2="31.0911" gradientUnits="userSpaceOnUse">
<stop stop-color="#0047A6"/>
<stop offset="1" stop-color="#FC2902"/>
</linearGradient>
<linearGradient id="paint7_linear_92_4" x1="23.7486" y1="6.48276" x2="576.93" y2="31.0911" gradientUnits="userSpaceOnUse">
<stop stop-color="#0047A6"/>
<stop offset="1" stop-color="#FC2902"/>
</linearGradient>
<linearGradient id="paint8_linear_92_4" x1="23.7486" y1="6.48276" x2="576.93" y2="31.0911" gradientUnits="userSpaceOnUse">
<stop stop-color="#0047A6"/>
<stop offset="1" stop-color="#FC2902"/>
</linearGradient>
<linearGradient id="paint9_linear_92_4" x1="23.7486" y1="6.48276" x2="576.93" y2="31.0911" gradientUnits="userSpaceOnUse">
<stop stop-color="#0047A6"/>
<stop offset="1" stop-color="#FC2902"/>
</linearGradient>
<linearGradient id="paint10_linear_92_4" x1="23.7486" y1="6.48276" x2="576.93" y2="31.0911" gradientUnits="userSpaceOnUse">
<stop stop-color="#0047A6"/>
<stop offset="1" stop-color="#FC2902"/>
</linearGradient>
<linearGradient id="paint11_linear_92_4" x1="23.7486" y1="6.48276" x2="576.93" y2="31.0911" gradientUnits="userSpaceOnUse">
<stop stop-color="#0047A6"/>
<stop offset="1" stop-color="#FC2902"/>
</linearGradient>
<linearGradient id="paint12_linear_92_4" x1="23.7486" y1="6.48276" x2="576.93" y2="31.0911" gradientUnits="userSpaceOnUse">
<stop stop-color="#0047A6"/>
<stop offset="1" stop-color="#FC2902"/>
</linearGradient>
<linearGradient id="paint13_linear_92_4" x1="23.7486" y1="6.48276" x2="576.93" y2="31.0911" gradientUnits="userSpaceOnUse">
<stop stop-color="#0047A6"/>
<stop offset="1" stop-color="#FC2902"/>
</linearGradient>
<linearGradient id="paint14_linear_92_4" x1="23.7486" y1="6.48276" x2="576.93" y2="31.0911" gradientUnits="userSpaceOnUse">
<stop stop-color="#0047A6"/>
<stop offset="1" stop-color="#FC2902"/>
</linearGradient>
<linearGradient id="paint15_linear_92_4" x1="23.7486" y1="6.48276" x2="576.93" y2="31.0911" gradientUnits="userSpaceOnUse">
<stop stop-color="#0047A6"/>
<stop offset="1" stop-color="#FC2902"/>
</linearGradient>
<linearGradient id="paint16_linear_92_4" x1="23.7486" y1="6.48276" x2="576.93" y2="31.0911" gradientUnits="userSpaceOnUse">
<stop stop-color="#0047A6"/>
<stop offset="1" stop-color="#FC2902"/>
</linearGradient>
<linearGradient id="paint17_linear_92_4" x1="23.7486" y1="6.48276" x2="576.93" y2="31.0911" gradientUnits="userSpaceOnUse">
<stop stop-color="#0047A6"/>
<stop offset="1" stop-color="#FC2902"/>
</linearGradient>
<linearGradient id="paint18_linear_92_4" x1="23.7486" y1="6.48276" x2="576.93" y2="31.0911" gradientUnits="userSpaceOnUse">
<stop stop-color="#0047A6"/>
<stop offset="1" stop-color="#FC2902"/>
</linearGradient>
<linearGradient id="paint19_linear_92_4" x1="23.7486" y1="6.48276" x2="576.93" y2="31.0911" gradientUnits="userSpaceOnUse">
<stop stop-color="#0047A6"/>
<stop offset="1" stop-color="#FC2902"/>
</linearGradient>
</defs>
</svg>
