<svg width="415" height="36" viewBox="0 0 415 36" fill="none" xmlns="http://www.w3.org/2000/svg">
<path d="M0.1 35V-2.38419e-06H9.15L23.55 18.5V-2.38419e-06H33.15V35H24.65L9.7 15.8V35H0.1ZM47.8078 35.6C42.0578 35.6 38.6078 31.8 38.6078 25.65V7.95H48.1078V22.6C48.1078 25.55 49.6578 27.15 51.9578 27.15C54.2078 27.15 55.9078 25.55 55.9078 22.6V7.95H65.4078V35H55.9078V31.3C54.1578 33.55 51.6578 35.6 47.8078 35.6ZM83.8973 35.65C75.3973 35.65 69.3973 30 69.3973 21.6V21.5C69.3973 13.6 75.0473 7.35 83.0473 7.35C92.3973 7.35 96.6973 14.2 96.6973 22.15C96.6973 22.75 96.6973 23.45 96.6473 24.1H78.5473C79.2973 27.05 81.4473 28.55 84.3973 28.55C86.6473 28.55 88.4473 27.7 90.3973 25.8L95.6473 30.15C93.0473 33.45 89.2973 35.65 83.8973 35.65ZM78.3973 19.25H87.7973C87.4473 16.25 85.6973 14.35 83.0973 14.35C80.5973 14.35 78.8973 16.3 78.3973 19.25ZM111.521 35.6C106.971 35.6 102.471 34.3 98.7207 31.6L102.271 25.85C105.371 27.9 108.771 28.95 111.571 28.95C113.221 28.95 113.971 28.45 113.971 27.5V27.4C113.971 26.35 112.471 25.9 109.621 25.1C104.271 23.7 100.021 21.9 100.021 16.45V16.35C100.021 10.6 104.621 7.4 110.871 7.4C114.821 7.4 118.921 8.55 122.021 10.55L118.771 16.55C115.971 15 112.921 14.05 110.771 14.05C109.321 14.05 108.571 14.6 108.571 15.35V15.45C108.571 16.5 110.121 17 112.971 17.85C118.321 19.35 122.571 21.2 122.571 26.45V26.55C122.571 32.5 118.121 35.6 111.521 35.6ZM136.716 35.55C131.016 35.55 127.616 33.05 127.616 26.6V15.6H124.416V7.95H127.616V1.1H137.116V7.95H143.416V15.6H137.116V24.75C137.116 26.65 137.966 27.45 139.716 27.45C140.966 27.45 142.166 27.1 143.316 26.55V34C141.616 34.95 139.366 35.55 136.716 35.55ZM147.499 35V7.95H156.999V13.4C158.549 9.7 161.049 7.3 165.549 7.5V17.5H164.749C159.799 17.5 156.999 20.35 156.999 26.6V35H147.499ZM182.198 35.65C173.548 35.65 167.298 29.3 167.298 21.6V21.5C167.298 13.8 173.598 7.35 182.298 7.35C190.948 7.35 197.198 13.7 197.198 21.4V21.5C197.198 29.2 190.898 35.65 182.198 35.65ZM182.298 27.6C185.748 27.6 187.948 24.85 187.948 21.6V21.5C187.948 18.2 185.548 15.4 182.198 15.4C178.748 15.4 176.548 18.15 176.548 21.4V21.5C176.548 24.8 178.948 27.6 182.298 27.6ZM215.627 35V-2.38419e-06H230.627C239.477 -2.38419e-06 245.177 4.55 245.177 12.3V12.4C245.177 20.65 238.827 25 230.127 25H225.327V35H215.627ZM225.327 17.4H229.927C233.377 17.4 235.477 15.6 235.477 12.85V12.75C235.477 9.75 233.377 8.15 229.877 8.15H225.327V17.4ZM248.72 35V7.95H258.22V13.4C259.77 9.7 262.27 7.3 266.77 7.5V17.5H265.97C261.02 17.5 258.22 20.35 258.22 26.6V35H248.72ZM283.418 35.65C274.768 35.65 268.518 29.3 268.518 21.6V21.5C268.518 13.8 274.818 7.35 283.518 7.35C292.168 7.35 298.418 13.7 298.418 21.4V21.5C298.418 29.2 292.118 35.65 283.418 35.65ZM283.518 27.6C286.968 27.6 289.168 24.85 289.168 21.6V21.5C289.168 18.2 286.768 15.4 283.418 15.4C279.968 15.4 277.768 18.15 277.768 21.4V21.5C277.768 24.8 280.168 27.6 283.518 27.6ZM315.481 35.65C307.331 35.65 301.331 29.25 301.331 21.6V21.5C301.331 13.85 307.281 7.4 315.831 7.4C321.381 7.4 325.081 9.8 327.381 13.45L320.931 18.25C319.631 16.45 318.181 15.4 315.881 15.4C312.831 15.4 310.581 18.1 310.581 21.4V21.5C310.581 25 312.781 27.65 315.981 27.65C318.231 27.65 319.681 26.6 321.181 24.85L327.531 29.45C325.031 33.15 321.431 35.65 315.481 35.65ZM343.565 35.65C335.065 35.65 329.065 30 329.065 21.6V21.5C329.065 13.6 334.715 7.35 342.715 7.35C352.065 7.35 356.365 14.2 356.365 22.15C356.365 22.75 356.365 23.45 356.315 24.1H338.215C338.965 27.05 341.115 28.55 344.065 28.55C346.315 28.55 348.115 27.7 350.065 25.8L355.315 30.15C352.715 33.45 348.965 35.65 343.565 35.65ZM338.065 19.25H347.465C347.115 16.25 345.365 14.35 342.765 14.35C340.265 14.35 338.565 16.3 338.065 19.25ZM371.189 35.6C366.639 35.6 362.139 34.3 358.389 31.6L361.939 25.85C365.039 27.9 368.439 28.95 371.239 28.95C372.889 28.95 373.639 28.45 373.639 27.5V27.4C373.639 26.35 372.139 25.9 369.289 25.1C363.939 23.7 359.689 21.9 359.689 16.45V16.35C359.689 10.6 364.289 7.4 370.539 7.4C374.489 7.4 378.589 8.55 381.689 10.55L378.439 16.55C375.639 15 372.589 14.05 370.439 14.05C368.989 14.05 368.239 14.6 368.239 15.35V15.45C368.239 16.5 369.789 17 372.639 17.85C377.989 19.35 382.239 21.2 382.239 26.45V26.55C382.239 32.5 377.789 35.6 371.189 35.6ZM399.922 35.65C391.272 35.65 385.022 29.3 385.022 21.6V21.5C385.022 13.8 391.322 7.35 400.022 7.35C408.672 7.35 414.922 13.7 414.922 21.4V21.5C414.922 29.2 408.622 35.65 399.922 35.65ZM400.022 27.6C403.472 27.6 405.672 24.85 405.672 21.6V21.5C405.672 18.2 403.272 15.4 399.922 15.4C396.472 15.4 394.272 18.15 394.272 21.4V21.5C394.272 24.8 396.672 27.6 400.022 27.6Z" fill="url(#paint0_linear_123_2)"/>
<defs>
<linearGradient id="paint0_linear_123_2" x1="15.2081" y1="4.48276" x2="392.165" y2="15.8976" gradientUnits="userSpaceOnUse">
<stop stop-color="#0047A6"/>
<stop offset="1" stop-color="#FC2902"/>
</linearGradient>
</defs>
</svg>
