<svg width="705" height="46" viewBox="0 0 705 46" fill="none" xmlns="http://www.w3.org/2000/svg">
<path d="M16.85 37.6C10.65 37.6 4.75001 35.65 0.450012 31.8L5.85001 25.35C9.30001 28.1 13.15 29.55 17.2 29.55C19.8 29.55 21.2 28.65 21.2 27.15V27.05C21.2 25.6 20.05 24.8 15.3 23.7C7.85001 22 2.10001 19.9 2.10001 12.7V12.6C2.10001 6.10003 7.25001 1.40003 15.65 1.40003C21.6 1.40003 26.25 3.00003 30.05 6.05003L25.2 12.9C22 10.65 18.5 9.45003 15.4 9.45003C13.05 9.45003 11.9 10.45 11.9 11.7V11.8C11.9 13.4 13.1 14.1 17.95 15.2C26 16.95 31 19.55 31 26.1V26.2C31 33.35 25.35 37.6 16.85 37.6Z" fill="url(#paint0_linear_92_2)"/>
<path d="M48.9672 37.65C40.3172 37.65 34.0672 31.3 34.0672 23.6V23.5C34.0672 15.8 40.3672 9.35003 49.0672 9.35003C57.7172 9.35003 63.9672 15.7 63.9672 23.4V23.5C63.9672 31.2 57.6672 37.65 48.9672 37.65ZM49.0672 29.6C52.5172 29.6 54.7172 26.85 54.7172 23.6V23.5C54.7172 20.2 52.3172 17.4 48.9672 17.4C45.5172 17.4 43.3172 20.15 43.3172 23.4V23.5C43.3172 26.8 45.7172 29.6 49.0672 29.6Z" fill="url(#paint1_linear_92_2)"/>
<path d="M68.1797 37V0.500026H77.6797V37H68.1797Z" fill="url(#paint2_linear_92_2)"/>
<path d="M91.9699 37.6C86.2199 37.6 82.7699 33.8 82.7699 27.65V9.95003H92.2699V24.6C92.2699 27.55 93.8199 29.15 96.1199 29.15C98.3699 29.15 100.07 27.55 100.07 24.6V9.95003H109.57V37H100.07V33.3C98.3199 35.55 95.8199 37.6 91.9699 37.6Z" fill="url(#paint3_linear_92_2)"/>
<path d="M127.709 37.65C119.559 37.65 113.559 31.25 113.559 23.6V23.5C113.559 15.85 119.509 9.40002 128.059 9.40002C133.609 9.40002 137.309 11.8 139.609 15.45L133.159 20.25C131.859 18.45 130.409 17.4 128.109 17.4C125.059 17.4 122.809 20.1 122.809 23.4V23.5C122.809 27 125.009 29.65 128.209 29.65C130.459 29.65 131.909 28.6 133.409 26.85L139.759 31.45C137.259 35.15 133.659 37.65 127.709 37.65Z" fill="url(#paint4_linear_92_2)"/>
<path d="M143.126 7.50003V0.500026H153.026V7.50003H143.126ZM143.326 37V9.95003H152.826V37H143.326Z" fill="url(#paint5_linear_92_2)"/>
<path d="M171.916 37.65C163.266 37.65 157.016 31.3 157.016 23.6V23.5C157.016 15.8 163.316 9.35003 172.016 9.35003C180.666 9.35003 186.916 15.7 186.916 23.4V23.5C186.916 31.2 180.616 37.65 171.916 37.65ZM172.016 29.6C175.466 29.6 177.666 26.85 177.666 23.6V23.5C177.666 20.2 175.266 17.4 171.916 17.4C168.466 17.4 166.266 20.15 166.266 23.4V23.5C166.266 26.8 168.666 29.6 172.016 29.6Z" fill="url(#paint6_linear_92_2)"/>
<path d="M190.929 37V9.95003H200.429V13.75C202.179 11.5 204.679 9.35003 208.529 9.35003C214.279 9.35003 217.729 13.15 217.729 19.3V37H208.229V22.35C208.229 19.4 206.679 17.8 204.429 17.8C202.129 17.8 200.429 19.4 200.429 22.35V37H190.929Z" fill="url(#paint7_linear_92_2)"/>
<path d="M236.018 37.65C227.518 37.65 221.518 32 221.518 23.6V23.5C221.518 15.6 227.168 9.35003 235.168 9.35003C244.518 9.35003 248.818 16.2 248.818 24.15C248.818 24.75 248.818 25.45 248.768 26.1H230.668C231.418 29.05 233.568 30.55 236.518 30.55C238.768 30.55 240.568 29.7 242.518 27.8L247.768 32.15C245.168 35.45 241.418 37.65 236.018 37.65ZM230.518 21.25H239.918C239.568 18.25 237.818 16.35 235.218 16.35C232.718 16.35 231.018 18.3 230.518 21.25Z" fill="url(#paint8_linear_92_2)"/>
<path d="M263.642 37.6C259.092 37.6 254.592 36.3 250.842 33.6L254.392 27.85C257.492 29.9 260.892 30.95 263.692 30.95C265.342 30.95 266.092 30.45 266.092 29.5V29.4C266.092 28.35 264.592 27.9 261.742 27.1C256.392 25.7 252.142 23.9 252.142 18.45V18.35C252.142 12.6 256.742 9.40002 262.992 9.40002C266.942 9.40002 271.042 10.55 274.142 12.55L270.892 18.55C268.092 17 265.042 16.05 262.892 16.05C261.442 16.05 260.692 16.6 260.692 17.35V17.45C260.692 18.5 262.242 19 265.092 19.85C270.442 21.35 274.692 23.2 274.692 28.45V28.55C274.692 34.5 270.242 37.6 263.642 37.6Z" fill="url(#paint9_linear_92_2)"/>
<path d="M303.393 37.6C296.993 37.6 291.443 32.25 291.443 23.6V23.5C291.443 14.7 296.943 9.35003 303.343 9.35003C307.443 9.35003 309.843 11.2 311.643 13.25V0.500026H321.143V37H311.643V33.4C309.793 35.65 307.443 37.6 303.393 37.6ZM306.293 29.65C309.343 29.65 311.793 27.1 311.793 23.5V23.4C311.793 19.85 309.343 17.3 306.293 17.3C303.243 17.3 300.743 19.8 300.743 23.4V23.5C300.743 27.1 303.243 29.65 306.293 29.65Z" fill="url(#paint10_linear_92_2)"/>
<path d="M339.632 37.65C331.132 37.65 325.132 32 325.132 23.6V23.5C325.132 15.6 330.782 9.35003 338.782 9.35003C348.132 9.35003 352.432 16.2 352.432 24.15C352.432 24.75 352.432 25.45 352.382 26.1H334.282C335.032 29.05 337.182 30.55 340.132 30.55C342.382 30.55 344.182 29.7 346.132 27.8L351.382 32.15C348.782 35.45 345.032 37.65 339.632 37.65ZM334.132 21.25H343.532C343.182 18.25 341.432 16.35 338.832 16.35C336.332 16.35 334.632 18.3 334.132 21.25Z" fill="url(#paint11_linear_92_2)"/>
<path d="M371.122 37V2.00002H380.872V37H371.122Z" fill="url(#paint12_linear_92_2)"/>
<path d="M395.83 37V10.5H385.33V2.00002H416.03V10.5H405.53V37H395.83Z" fill="url(#paint13_linear_92_2)"/>
<path d="M441.605 45.15C438.255 45.15 435.405 44.2 432.905 42.8L435.855 36.15C437.355 37.05 438.955 37.6 440.005 37.6C440.955 37.6 441.605 37.35 442.205 36.5L431.605 9.95003H441.555L446.955 26.25L452.055 9.95003H461.805L451.905 36.35C449.555 42.65 447.005 45.15 441.605 45.15Z" fill="url(#paint14_linear_92_2)"/>
<path d="M493.071 37.6C486.871 37.6 480.971 35.65 476.671 31.8L482.071 25.35C485.521 28.1 489.371 29.55 493.421 29.55C496.021 29.55 497.421 28.65 497.421 27.15V27.05C497.421 25.6 496.271 24.8 491.521 23.7C484.071 22 478.321 19.9 478.321 12.7V12.6C478.321 6.10003 483.471 1.40003 491.871 1.40003C497.821 1.40003 502.471 3.00003 506.271 6.05003L501.421 12.9C498.221 10.65 494.721 9.45003 491.621 9.45003C489.271 9.45003 488.121 10.45 488.121 11.7V11.8C488.121 13.4 489.321 14.1 494.171 15.2C502.221 16.95 507.221 19.55 507.221 26.1V26.2C507.221 33.35 501.571 37.6 493.071 37.6Z" fill="url(#paint15_linear_92_2)"/>
<path d="M525.188 37.65C516.538 37.65 510.288 31.3 510.288 23.6V23.5C510.288 15.8 516.588 9.35003 525.288 9.35003C533.938 9.35003 540.188 15.7 540.188 23.4V23.5C540.188 31.2 533.888 37.65 525.188 37.65ZM525.288 29.6C528.738 29.6 530.938 26.85 530.938 23.6V23.5C530.938 20.2 528.538 17.4 525.188 17.4C521.738 17.4 519.538 20.15 519.538 23.4V23.5C519.538 26.8 521.938 29.6 525.288 29.6Z" fill="url(#paint16_linear_92_2)"/>
<path d="M545.656 37V17.55H542.506V10.1H545.656V9.50003C545.656 6.40002 546.356 4.10002 547.956 2.50002C549.606 0.850024 551.806 0.150024 555.006 0.150024C557.906 0.150024 559.706 0.450027 561.206 0.900024V7.60003C560.106 7.25003 559.006 7.05002 557.656 7.05002C555.906 7.05002 554.956 7.85003 554.956 9.60003V10.25H561.156V17.55H555.106V37H545.656Z" fill="url(#paint17_linear_92_2)"/>
<path d="M574.921 37.55C569.221 37.55 565.821 35.05 565.821 28.6V17.6H562.621V9.95003H565.821V3.10003H575.321V9.95003H581.621V17.6H575.321V26.75C575.321 28.65 576.171 29.45 577.921 29.45C579.171 29.45 580.371 29.1 581.521 28.55V36C579.821 36.95 577.571 37.55 574.921 37.55Z" fill="url(#paint18_linear_92_2)"/>
<path d="M592.004 37.2L583.754 9.95003H593.054L596.604 23.55L600.754 9.85003H608.604L612.804 23.65L616.454 9.95003H625.604L617.254 37.2H609.054L604.654 23.15L600.154 37.2H592.004Z" fill="url(#paint19_linear_92_2)"/>
<path d="M635.251 37.6C630.101 37.6 626.151 34.65 626.151 29.25V29.15C626.151 23.55 630.401 20.65 636.751 20.65C639.251 20.65 641.701 21.15 643.251 21.7V21.25C643.251 18.45 641.501 16.85 637.851 16.85C635.001 16.85 632.801 17.4 630.401 18.35L628.451 11.65C631.501 10.4 634.751 9.55003 639.401 9.55003C644.251 9.55003 647.551 10.7 649.701 12.85C651.751 14.85 652.601 17.65 652.601 21.45V37H643.201V34.2C641.351 36.25 638.801 37.6 635.251 37.6ZM638.651 31.65C641.401 31.65 643.351 29.9 643.351 27.2V25.95C642.401 25.55 641.051 25.25 639.651 25.25C636.901 25.25 635.301 26.6 635.301 28.6V28.7C635.301 30.55 636.701 31.65 638.651 31.65Z" fill="url(#paint20_linear_92_2)"/>
<path d="M657.433 37V9.95003H666.933V15.4C668.483 11.7 670.983 9.30003 675.483 9.50003V19.5H674.683C669.733 19.5 666.933 22.35 666.933 28.6V37H657.433Z" fill="url(#paint21_linear_92_2)"/>
<path d="M691.731 37.65C683.231 37.65 677.231 32 677.231 23.6V23.5C677.231 15.6 682.881 9.35003 690.881 9.35003C700.231 9.35003 704.531 16.2 704.531 24.15C704.531 24.75 704.531 25.45 704.481 26.1H686.381C687.131 29.05 689.281 30.55 692.231 30.55C694.481 30.55 696.281 29.7 698.231 27.8L703.481 32.15C700.881 35.45 697.131 37.65 691.731 37.65ZM686.231 21.25H695.631C695.281 18.25 693.531 16.35 690.931 16.35C688.431 16.35 686.731 18.3 686.231 21.25Z" fill="url(#paint22_linear_92_2)"/>
<defs>
<linearGradient id="paint0_linear_92_2" x1="30.6503" y1="6.48276" x2="664.131" y2="38.7738" gradientUnits="userSpaceOnUse">
<stop stop-color="#0047A6"/>
<stop offset="1" stop-color="#FC2902"/>
</linearGradient>
<linearGradient id="paint1_linear_92_2" x1="30.6503" y1="6.48276" x2="664.131" y2="38.7738" gradientUnits="userSpaceOnUse">
<stop stop-color="#0047A6"/>
<stop offset="1" stop-color="#FC2902"/>
</linearGradient>
<linearGradient id="paint2_linear_92_2" x1="30.6503" y1="6.48276" x2="664.131" y2="38.7738" gradientUnits="userSpaceOnUse">
<stop stop-color="#0047A6"/>
<stop offset="1" stop-color="#FC2902"/>
</linearGradient>
<linearGradient id="paint3_linear_92_2" x1="30.6503" y1="6.48276" x2="664.131" y2="38.7738" gradientUnits="userSpaceOnUse">
<stop stop-color="#0047A6"/>
<stop offset="1" stop-color="#FC2902"/>
</linearGradient>
<linearGradient id="paint4_linear_92_2" x1="30.6503" y1="6.48276" x2="664.131" y2="38.7738" gradientUnits="userSpaceOnUse">
<stop stop-color="#0047A6"/>
<stop offset="1" stop-color="#FC2902"/>
</linearGradient>
<linearGradient id="paint5_linear_92_2" x1="30.6503" y1="6.48276" x2="664.131" y2="38.7738" gradientUnits="userSpaceOnUse">
<stop stop-color="#0047A6"/>
<stop offset="1" stop-color="#FC2902"/>
</linearGradient>
<linearGradient id="paint6_linear_92_2" x1="30.6503" y1="6.48276" x2="664.131" y2="38.7738" gradientUnits="userSpaceOnUse">
<stop stop-color="#0047A6"/>
<stop offset="1" stop-color="#FC2902"/>
</linearGradient>
<linearGradient id="paint7_linear_92_2" x1="30.6503" y1="6.48276" x2="664.131" y2="38.7738" gradientUnits="userSpaceOnUse">
<stop stop-color="#0047A6"/>
<stop offset="1" stop-color="#FC2902"/>
</linearGradient>
<linearGradient id="paint8_linear_92_2" x1="30.6503" y1="6.48276" x2="664.131" y2="38.7738" gradientUnits="userSpaceOnUse">
<stop stop-color="#0047A6"/>
<stop offset="1" stop-color="#FC2902"/>
</linearGradient>
<linearGradient id="paint9_linear_92_2" x1="30.6503" y1="6.48276" x2="664.131" y2="38.7738" gradientUnits="userSpaceOnUse">
<stop stop-color="#0047A6"/>
<stop offset="1" stop-color="#FC2902"/>
</linearGradient>
<linearGradient id="paint10_linear_92_2" x1="30.6503" y1="6.48276" x2="664.131" y2="38.7738" gradientUnits="userSpaceOnUse">
<stop stop-color="#0047A6"/>
<stop offset="1" stop-color="#FC2902"/>
</linearGradient>
<linearGradient id="paint11_linear_92_2" x1="30.6503" y1="6.48276" x2="664.131" y2="38.7738" gradientUnits="userSpaceOnUse">
<stop stop-color="#0047A6"/>
<stop offset="1" stop-color="#FC2902"/>
</linearGradient>
<linearGradient id="paint12_linear_92_2" x1="30.6503" y1="6.48276" x2="664.131" y2="38.7738" gradientUnits="userSpaceOnUse">
<stop stop-color="#0047A6"/>
<stop offset="1" stop-color="#FC2902"/>
</linearGradient>
<linearGradient id="paint13_linear_92_2" x1="30.6503" y1="6.48276" x2="664.131" y2="38.7738" gradientUnits="userSpaceOnUse">
<stop stop-color="#0047A6"/>
<stop offset="1" stop-color="#FC2902"/>
</linearGradient>
<linearGradient id="paint14_linear_92_2" x1="30.6503" y1="6.48276" x2="664.131" y2="38.7738" gradientUnits="userSpaceOnUse">
<stop stop-color="#0047A6"/>
<stop offset="1" stop-color="#FC2902"/>
</linearGradient>
<linearGradient id="paint15_linear_92_2" x1="30.6503" y1="6.48276" x2="664.131" y2="38.7738" gradientUnits="userSpaceOnUse">
<stop stop-color="#0047A6"/>
<stop offset="1" stop-color="#FC2902"/>
</linearGradient>
<linearGradient id="paint16_linear_92_2" x1="30.6503" y1="6.48276" x2="664.131" y2="38.7738" gradientUnits="userSpaceOnUse">
<stop stop-color="#0047A6"/>
<stop offset="1" stop-color="#FC2902"/>
</linearGradient>
<linearGradient id="paint17_linear_92_2" x1="30.6503" y1="6.48276" x2="664.131" y2="38.7738" gradientUnits="userSpaceOnUse">
<stop stop-color="#0047A6"/>
<stop offset="1" stop-color="#FC2902"/>
</linearGradient>
<linearGradient id="paint18_linear_92_2" x1="30.6503" y1="6.48276" x2="664.131" y2="38.7738" gradientUnits="userSpaceOnUse">
<stop stop-color="#0047A6"/>
<stop offset="1" stop-color="#FC2902"/>
</linearGradient>
<linearGradient id="paint19_linear_92_2" x1="30.6503" y1="6.48276" x2="664.131" y2="38.7738" gradientUnits="userSpaceOnUse">
<stop stop-color="#0047A6"/>
<stop offset="1" stop-color="#FC2902"/>
</linearGradient>
<linearGradient id="paint20_linear_92_2" x1="30.6503" y1="6.48276" x2="664.131" y2="38.7738" gradientUnits="userSpaceOnUse">
<stop stop-color="#0047A6"/>
<stop offset="1" stop-color="#FC2902"/>
</linearGradient>
<linearGradient id="paint21_linear_92_2" x1="30.6503" y1="6.48276" x2="664.131" y2="38.7738" gradientUnits="userSpaceOnUse">
<stop stop-color="#0047A6"/>
<stop offset="1" stop-color="#FC2902"/>
</linearGradient>
<linearGradient id="paint22_linear_92_2" x1="30.6503" y1="6.48276" x2="664.131" y2="38.7738" gradientUnits="userSpaceOnUse">
<stop stop-color="#0047A6"/>
<stop offset="1" stop-color="#FC2902"/>
</linearGradient>
</defs>
</svg>
