<svg width="306" height="32" viewBox="0 0 306 32" fill="none" xmlns="http://www.w3.org/2000/svg">
<path d="M39.3821 0.523926H35.9104L24.4388 11.4982V0.559652H20.5694V14.0885H18.243V2.4949L16.3083 0.553691H1.67951V3.85253L7.18088 9.47367C8.46276 10.7837 9.28174 12.3914 9.63782 14.0825H0V17.9649H9.65564C9.31143 19.6739 8.49836 21.2995 7.21648 22.6274L0.462918 29.6002V31.4878H4.0296L9.98798 25.3367C11.9939 23.2645 13.1867 20.6683 13.5665 17.9709H14.3677V31.5057H18.2371V17.9709H20.5635V31.5057H24.4328V20.5671L35.8451 31.4878H39.3762V29.5049L27.3289 17.9768H38.575V14.0944H27.3289L39.3762 2.56635V0.523926H39.3821ZM13.5665 14.0885C13.1689 11.403 11.9642 8.81866 9.94643 6.75837L7.67346 4.4361H14.3796V14.0885H13.5665Z" fill="black"/>
<path d="M80.3427 31.4697L73.7376 21.5731H68.4083V31.4697H61.625V0.541504H75.7197C79.3873 0.541504 82.2418 1.44067 84.2833 3.23895C86.3249 5.03724 87.3456 7.54413 87.3456 10.7537V10.843C87.3456 13.3439 86.7344 15.3863 85.5178 16.9643C84.3012 18.5423 82.7048 19.6975 80.7404 20.4358L88.2715 31.4816H80.3427V31.4697ZM80.4734 11.099C80.4734 9.62821 80.0045 8.52069 79.0609 7.78232C78.1233 7.04395 76.8176 6.67473 75.1381 6.67473H68.4023V15.5531H75.2746C76.9482 15.5531 78.2301 15.1541 79.1262 14.3562C80.0223 13.5583 80.4674 12.4983 80.4674 11.1764V11.0871L80.4734 11.099Z" fill="black"/>
<path d="M116.408 31.4694L113.589 24.5323H100.557L97.7381 31.4694H90.8242L104.035 0.314941H110.29L123.5 31.4694H116.408ZM107.073 8.49063L102.978 18.5241H111.168L107.073 8.49063Z" fill="black"/>
<path d="M128.252 31.4697V0.541504H135.036V25.3305H150.406V31.4756H128.258L128.252 31.4697Z" fill="black"/>
<path d="M175.422 31.4697L165.867 18.3041L162.3 22.0138V31.4697H155.517V0.541504H162.3V14.0644L174.805 0.541504H182.994L170.443 13.6655L183.564 31.4697H175.416H175.422Z" fill="black"/>
<path d="M203.977 6.81279V31.4708H197.194V6.81279H187.812V0.536621H213.354V6.81279H203.971H203.977Z" fill="black"/>
<path d="M218.552 31.4697V0.541504H241.763V6.59139H225.247V12.8675H239.78V18.9233H225.247V25.4198H241.982V31.4697H218.552Z" fill="black"/>
<path d="M272.679 28.7726C271.824 29.4514 270.892 30.029 269.883 30.5173C268.868 31.0056 267.765 31.3748 266.56 31.6249C265.355 31.8749 264.008 32 262.507 32C260.246 32 258.145 31.5891 256.21 30.7614C254.269 29.9397 252.596 28.8083 251.189 27.3792C249.777 25.9501 248.679 24.265 247.884 22.3178C247.088 20.3766 246.697 18.2985 246.697 16.0893V16C246.697 13.7908 247.094 11.7246 247.884 9.78936C248.679 7.86007 249.777 6.16299 251.189 4.71007C252.602 3.25119 254.287 2.10197 256.252 1.26237C258.216 0.422773 260.388 0 262.768 0C264.204 0 265.521 0.119072 266.708 0.351301C267.901 0.589485 268.975 0.911036 269.943 1.3219C270.91 1.73277 271.806 2.23297 272.631 2.82247C273.456 3.41198 274.216 4.06104 274.922 4.76368L270.607 9.75956C269.403 8.66987 268.18 7.81837 266.928 7.19909C265.676 6.57981 264.275 6.27017 262.72 6.27017C261.427 6.27017 260.234 6.52028 259.136 7.02642C258.032 7.5266 257.088 8.21733 256.293 9.10457C255.498 9.9918 254.881 11.0101 254.441 12.1772C254.002 13.3383 253.783 14.5828 253.783 15.9107V16C253.783 17.3279 254.002 18.5783 254.441 19.7573C254.881 20.9364 255.492 21.9665 256.269 22.8537C257.047 23.735 257.984 24.4376 259.088 24.9497C260.192 25.4678 261.403 25.7239 262.72 25.7239C264.483 25.7239 265.972 25.4023 267.189 24.7533C268.406 24.1042 269.616 23.2229 270.821 22.1035L275.136 26.4741C274.34 27.3316 273.521 28.0938 272.673 28.7726H272.679Z" fill="black"/>
<path d="M299.218 31.4697V19.0544H286.714V31.4697H279.931V0.541504H286.714V12.7782H299.218V0.541504H306.001V31.4697H299.218Z" fill="black"/>
</svg>
